{"glyphs":{"0":{"ha":349,"x_min":55,"x_max":334,"o":"m 216 283 l 216 283 q 164 271 187 283 q 123 239 140 259 q 97 191 106 218 q 88 135 88 164 l 88 135 q 109 60 88 88 q 175 31 130 31 l 175 31 q 222 42 199 31 q 263 73 245 53 q 291 121 280 93 q 301 181 301 148 l 301 181 q 281 256 301 228 q 216 283 261 283 z m 148 0 l 148 0 q 79 30 103 0 q 55 104 55 59 l 55 104 q 69 173 55 136 q 107 241 82 210 q 166 293 132 272 q 242 313 200 313 l 242 313 q 311 284 287 313 q 334 210 334 255 l 334 210 q 318 132 334 169 q 276 65 302 94 q 217 18 250 35 q 148 0 183 0 z"},"1":{"ha":189,"x_min":40,"x_max":234,"o":"m 51 -7 l 51 -7 q 40 2 40 -7 l 40 2 q 67 68 52 34 q 96 136 81 102 q 126 202 111 170 q 154 262 141 234 l 154 262 q 110 251 131 256 q 72 246 89 246 l 72 246 q 69 252 68 247 q 76 259 70 257 l 76 259 q 152 282 114 264 q 221 327 189 299 l 221 327 q 230 327 226 329 q 233 320 234 325 l 233 320 q 186 248 208 287 q 146 168 164 208 q 114 87 127 127 q 91 12 100 47 l 91 12 q 73 -2 84 3 q 51 -7 62 -7 z"},"2":{"ha":277,"x_min":-1,"x_max":271,"o":"m 201 313 l 201 313 q 253 293 235 313 q 271 245 271 272 l 271 245 q 259 191 271 215 q 222 145 246 167 q 163 101 198 123 q 83 51 128 78 l 83 51 q 132 39 104 44 q 194 33 160 33 l 194 33 q 247 58 233 33 l 247 58 q 255 59 251 62 q 256 48 258 55 l 256 48 q 222 13 242 25 q 172 0 202 0 l 172 0 q 123 6 144 0 q 86 16 102 11 q 56 23 69 21 q 29 16 42 24 l 29 16 q 15 7 20 11 q 4 0 9 3 l 4 0 q -1 7 -1 0 q 4 18 -1 13 l 4 18 q 88 71 47 47 q 161 118 129 94 q 212 168 193 141 q 231 229 231 194 l 231 229 q 215 269 231 255 q 172 283 199 283 l 172 283 q 119 261 140 283 q 90 207 97 239 l 90 207 q 83 207 87 204 q 78 215 79 210 l 78 215 q 93 251 82 233 q 119 282 103 268 q 155 305 134 296 q 201 313 176 313 z"},"3":{"ha":253,"x_min":-57,"x_max":258,"o":"m 182 313 l 182 313 q 239 293 219 313 q 258 248 258 272 l 258 248 q 224 172 258 200 q 123 117 190 144 l 123 117 q 164 119 144 123 q 198 102 183 114 q 222 70 213 89 q 230 30 230 51 l 230 30 q 211 -44 230 -9 q 161 -105 192 -79 q 89 -146 130 -131 q 5 -162 48 -162 l 5 -162 q -41 -144 -27 -162 q -57 -94 -55 -127 l -57 -94 q -51 -90 -55 -91 q -45 -92 -47 -89 l -45 -92 q 37 -138 -30 -138 l 37 -138 q 96 -128 68 -138 q 144 -100 123 -118 q 176 -59 164 -83 q 188 -7 188 -35 l 188 -7 q 166 74 188 47 q 101 100 143 100 l 101 100 q 58 87 77 100 l 58 87 q 51 92 53 87 q 52 101 49 96 l 52 101 q 130 134 98 120 q 181 162 161 148 q 209 192 200 176 q 217 229 217 207 l 217 229 q 202 273 217 255 q 158 290 186 290 l 158 290 q 115 279 132 290 q 87 248 98 268 l 87 248 q 79 248 84 245 q 76 256 74 251 l 76 256 q 114 296 88 279 q 182 313 140 313 z"},"4":{"ha":363,"x_min":38,"x_max":464,"o":"m 452 503 l 452 503 q 461 502 457 504 q 462 494 464 499 l 462 494 q 409 438 431 467 q 367 374 387 409 l 367 374 q 317 274 341 328 q 272 160 293 220 l 272 160 q 282 159 277 159 q 292 159 287 159 l 292 159 q 350 170 327 159 q 383 200 372 180 l 383 200 q 389 200 385 202 q 390 192 392 197 l 390 192 q 345 145 372 160 q 270 129 318 129 l 270 129 l 261 129 q 245 76 253 103 q 229 20 237 48 l 229 20 q 212 3 225 11 q 188 -6 199 -6 l 188 -6 q 177 0 178 -6 l 177 0 q 199 65 188 32 q 223 131 210 98 l 223 131 q 162 140 189 134 q 115 149 135 145 q 81 153 95 152 q 58 148 66 154 l 58 148 q 54 145 56 146 q 50 141 52 143 l 50 141 q 42 141 46 139 q 40 148 38 143 l 40 148 q 134 251 83 201 q 239 347 185 301 q 348 432 293 392 q 452 503 402 471 z m 235 161 l 235 161 q 296 301 264 233 q 359 422 327 368 l 359 422 q 284 367 319 395 q 216 310 248 339 q 152 249 183 280 q 90 183 121 217 l 90 183 q 156 169 119 175 q 235 161 193 163 z"},"5":{"ha":250,"x_min":-70,"x_max":299,"o":"m 125 159 l 125 159 q 187 107 165 139 q 208 33 208 74 l 208 33 q 191 -37 208 -3 q 144 -97 173 -71 q 76 -138 115 -123 q -5 -154 37 -154 l -5 -154 q -52 -137 -37 -154 q -70 -95 -68 -121 l -70 -95 q -64 -89 -69 -90 q -58 -91 -60 -88 l -58 -91 q -27 -119 -47 -111 q 28 -128 -8 -128 l 28 -128 q 85 -117 59 -128 q 129 -89 110 -107 q 159 -46 148 -71 q 169 8 169 -21 l 169 8 q 150 77 169 46 q 91 123 131 107 l 91 123 q 78 168 68 131 l 78 168 q 102 237 87 201 q 131 304 116 273 l 131 304 q 146 309 135 309 l 146 309 q 189 311 166 310 q 236 313 212 311 l 236 313 q 289 332 282 315 l 289 332 q 295 334 291 336 q 299 327 299 332 l 299 327 q 290 301 294 310 q 280 286 286 291 q 263 278 273 280 q 236 275 252 276 l 236 275 q 217 275 228 275 q 194 273 206 274 q 171 272 182 272 q 152 271 159 271 l 152 271 q 135 267 140 270 q 126 258 129 264 l 126 258 q 115 231 119 243 q 106 204 110 218 l 106 204 q 106 177 102 187 q 125 159 110 167 z"},"6":{"ha":296,"x_min":50,"x_max":437,"o":"m 376 500 l 376 500 q 420 480 403 500 q 437 429 436 459 l 437 429 q 432 425 435 425 q 427 426 429 424 l 427 426 q 396 457 415 446 q 345 468 377 468 l 345 468 q 272 451 306 468 q 208 403 237 434 q 154 329 178 372 q 111 232 130 285 l 111 232 q 158 275 129 258 q 220 292 186 292 l 220 292 q 272 266 252 292 q 291 201 291 239 l 291 201 q 276 129 291 165 q 235 65 260 93 q 180 18 210 36 q 119 0 149 0 l 119 0 q 67 28 84 0 q 50 108 50 55 l 50 108 q 63 189 50 145 q 97 276 75 232 q 149 360 118 319 q 216 432 179 400 q 293 482 252 463 q 376 500 333 500 z m 189 259 l 189 259 q 152 249 170 259 q 120 221 134 239 q 97 179 105 203 q 88 126 88 154 l 88 126 q 104 52 88 73 q 152 31 120 31 l 152 31 q 186 41 168 31 q 218 69 203 50 q 241 115 232 87 q 250 179 250 142 l 250 179 q 236 237 250 214 q 189 259 221 259 z"},"7":{"ha":326,"x_min":-11,"x_max":375,"o":"m 195 313 l 195 313 q 261 309 229 313 q 329 297 293 304 l 329 297 q 354 306 343 295 l 354 306 q 365 321 363 316 l 365 321 q 372 320 369 323 q 373 309 375 316 l 373 309 q 281 166 325 225 q 196 57 236 106 q 118 -38 155 7 q 49 -139 81 -84 l 49 -139 q 26 -154 42 -146 q -1 -162 9 -162 l -1 -162 q -8 -159 -5 -162 q -9 -152 -11 -157 l -9 -152 q 44 -81 18 -113 q 95 -21 69 -50 q 148 35 121 7 q 203 96 174 63 q 262 168 231 128 q 325 258 292 207 l 325 258 q 294 262 308 260 q 264 265 279 264 q 231 267 249 266 q 190 267 213 267 l 190 267 q 145 264 163 267 q 114 250 126 260 q 92 223 101 240 q 75 179 83 206 l 75 179 q 68 178 72 174 q 64 186 63 181 l 64 186 q 84 242 72 212 q 107 292 96 272 l 107 292 q 119 301 112 297 q 135 308 125 305 q 160 312 145 310 q 195 313 174 313 z"},"8":{"ha":305,"x_min":40,"x_max":355,"o":"m 355 401 l 355 401 q 250 272 355 319 l 250 272 q 289 222 271 249 q 306 154 306 195 l 306 154 q 293 96 306 124 q 257 47 279 68 q 204 13 234 26 q 141 0 174 0 l 141 0 q 67 29 93 0 q 40 98 40 58 l 40 98 q 75 194 40 152 q 196 265 110 235 l 196 265 q 163 311 177 287 q 148 368 148 334 l 148 368 q 157 406 148 387 q 183 441 166 425 q 222 466 199 456 q 273 476 245 476 l 273 476 q 333 454 310 476 q 355 401 355 432 z m 173 28 l 173 28 q 241 55 213 28 q 268 123 268 82 l 268 123 q 263 166 268 147 q 249 200 257 184 q 229 229 240 215 q 206 254 218 242 l 206 254 q 108 196 135 228 q 81 118 81 163 l 81 118 q 105 53 81 77 q 173 28 128 28 z m 240 282 l 240 282 q 302 328 284 304 q 320 381 320 352 l 320 381 q 301 434 320 415 q 249 452 281 452 l 249 452 q 203 435 220 452 q 185 391 185 418 l 185 391 q 202 330 185 354 q 240 282 218 305 z"},"9":{"ha":304,"x_min":-44,"x_max":298,"o":"m 17 -151 l 17 -151 q -25 -138 -9 -151 q -44 -103 -41 -125 l -44 -103 q -40 -98 -43 -100 q -34 -98 -37 -96 l -34 -98 q -8 -117 -24 -111 q 34 -124 8 -124 l 34 -124 q 154 -76 105 -124 q 234 88 202 -28 l 234 88 q 188 40 214 58 q 125 21 162 21 l 125 21 q 65 46 85 21 q 45 108 45 71 l 45 108 q 58 178 45 142 q 93 244 70 214 q 146 294 115 274 q 214 313 177 313 l 214 313 q 275 288 251 313 q 298 225 298 263 l 298 225 q 274 85 298 152 q 211 -35 250 17 q 122 -119 172 -88 q 17 -151 71 -151 z m 152 51 l 152 51 q 191 64 172 51 q 225 98 210 77 q 248 146 239 119 q 256 200 256 172 l 256 200 q 240 261 256 237 q 185 285 223 285 l 185 285 q 113 242 140 285 q 85 129 85 199 l 85 129 q 101 71 85 91 q 152 51 117 51 z"}," ":{"ha":150,"x_min":0,"x_max":0,"o":""},"C":{"ha":557,"x_min":69,"x_max":630,"o":"m 466 644 l 466 644 q 532 641 502 644 q 584 630 562 637 q 618 614 605 623 q 630 592 630 604 l 630 592 q 627 573 630 584 q 618 549 623 561 q 607 525 613 537 q 594 505 600 513 l 594 505 q 588 506 591 503 q 586 512 584 508 l 586 512 q 595 569 607 549 l 595 569 q 539 609 581 592 q 442 625 497 625 l 442 625 q 311 600 370 625 q 210 528 252 574 q 144 417 167 481 q 120 276 120 353 l 120 276 q 135 173 120 220 q 179 91 150 125 q 250 37 208 56 q 346 17 292 17 l 346 17 q 466 62 418 17 q 534 180 514 106 l 534 180 q 541 184 536 185 q 545 178 545 183 l 545 178 q 533 132 541 157 q 516 84 525 106 q 499 45 507 61 q 484 26 490 28 l 484 26 q 413 7 452 14 q 330 0 374 0 l 330 0 q 221 19 269 0 q 139 70 172 37 q 87 148 105 103 q 69 245 69 193 l 69 245 q 98 398 69 325 q 180 525 127 470 q 305 612 232 579 q 466 644 378 644 z"},"E":{"ha":494,"x_min":60,"x_max":546,"o":"m 269 523 l 269 523 q 293 464 269 488 q 373 422 316 439 l 373 422 q 374 416 376 420 q 366 406 371 411 q 355 397 361 401 q 344 392 348 393 l 344 392 q 170 344 232 397 q 108 182 108 290 l 108 182 q 119 117 108 147 q 149 65 129 87 q 196 31 168 43 q 258 18 223 18 l 258 18 q 392 56 340 18 q 467 179 444 94 l 467 179 q 474 182 470 184 q 478 174 477 180 l 478 174 q 450 81 466 118 q 419 38 433 44 l 419 38 q 335 11 384 22 q 234 0 285 0 l 234 0 q 160 13 192 0 q 105 48 127 26 q 72 99 83 70 q 60 158 60 127 l 60 158 q 78 249 60 206 q 127 324 95 291 q 202 380 158 357 q 297 412 245 403 l 297 412 q 247 452 265 429 q 229 502 229 475 l 229 502 q 244 556 229 530 q 284 601 258 581 q 344 632 309 620 q 419 644 378 644 l 419 644 q 466 640 443 644 q 507 628 489 635 q 536 611 525 620 q 546 591 546 601 l 546 591 q 543 573 546 583 q 535 551 539 562 q 525 531 530 540 q 516 517 519 521 l 516 517 q 511 517 514 515 q 508 522 507 518 l 508 522 q 517 547 514 533 q 512 573 520 560 l 512 573 q 470 609 501 591 q 399 627 439 627 l 399 627 q 342 618 366 627 q 302 594 318 609 q 277 561 285 579 q 269 523 269 542 z"},"F":{"ha":626,"x_min":50,"x_max":837,"o":"m 833 609 l 833 609 q 835 601 837 606 q 826 590 832 595 q 812 581 820 585 q 797 577 804 577 l 797 577 q 749 583 773 579 q 700 590 724 586 l 700 590 q 665 573 680 584 q 636 542 649 561 q 611 492 623 522 q 587 418 599 462 l 587 418 q 574 373 580 395 q 560 330 568 351 l 560 330 q 611 331 585 331 q 663 331 636 331 l 663 331 q 667 326 668 329 q 657 321 665 323 l 657 321 q 606 321 631 321 q 556 319 580 320 l 556 319 q 408 77 497 154 q 194 0 318 0 l 194 0 q 86 37 122 0 q 50 133 50 73 l 50 133 q 66 191 50 162 q 110 240 81 220 l 110 240 q 117 236 115 240 q 116 229 118 232 l 116 229 q 90 199 98 215 q 81 154 81 182 l 81 154 q 90 106 81 128 q 118 68 99 84 q 167 42 137 51 q 239 33 197 33 l 239 33 q 329 48 289 33 q 403 96 369 62 q 465 184 436 129 q 519 317 493 238 l 519 317 q 422 311 469 315 q 326 300 374 307 l 326 300 q 327 305 323 301 q 339 312 331 308 q 355 319 346 315 q 368 323 363 322 l 368 323 q 447 328 409 326 q 523 330 485 329 l 523 330 q 533 363 528 346 q 543 398 538 380 l 543 398 q 568 474 555 441 q 596 529 580 506 q 632 568 612 552 q 677 593 651 583 l 677 593 q 573 608 623 601 q 478 614 523 614 l 478 614 q 352 582 403 614 q 278 481 301 550 l 278 481 q 272 481 275 479 q 269 487 269 482 l 269 487 q 356 601 291 558 q 515 644 420 644 l 515 644 q 590 640 552 644 q 666 631 627 636 q 747 619 705 625 q 833 609 788 613 z"},"G":{"ha":571,"x_min":-37,"x_max":696,"o":"m 573 611 l 573 611 q 445 583 504 611 q 342 505 385 554 q 274 387 298 455 q 249 239 249 318 l 249 239 q 274 136 249 171 q 349 101 298 101 l 349 101 q 450 134 407 101 q 510 226 493 166 l 510 226 q 519 236 511 232 q 536 242 527 240 q 551 242 544 243 q 558 236 558 241 l 558 236 q 481 40 525 120 q 384 -91 437 -41 q 271 -163 331 -141 q 145 -186 210 -186 l 145 -186 q 65 -174 99 -186 q 9 -141 31 -162 q -25 -92 -14 -120 q -37 -34 -37 -65 l -37 -34 q -17 44 -37 9 q 49 100 2 78 l 49 100 q 56 98 54 102 q 54 89 57 93 l 54 89 q 5 -10 5 62 l 5 -10 q 47 -124 5 -80 q 167 -168 89 -168 l 167 -168 q 356 -94 275 -168 q 486 143 436 -21 l 486 143 q 416 100 455 117 q 328 82 377 82 l 328 82 q 232 119 264 82 q 200 216 200 155 l 200 216 q 231 362 200 286 q 317 500 262 437 q 444 603 371 562 q 601 643 517 643 l 601 643 q 671 624 645 643 q 696 578 696 605 l 696 578 q 691 552 696 567 q 678 522 686 537 q 661 492 670 506 q 645 466 652 477 l 645 466 q 638 467 641 464 q 635 473 634 469 l 635 473 q 656 512 649 495 q 662 549 662 529 l 662 549 q 638 594 662 576 q 573 611 613 611 z"},"H":{"ha":865,"x_min":50,"x_max":1152,"o":"m 1109 681 l 1109 681 q 1141 668 1130 681 q 1152 636 1152 654 l 1152 636 q 1149 609 1152 622 q 1139 585 1145 595 l 1139 585 q 1135 584 1137 583 q 1132 589 1132 585 l 1132 589 q 1128 628 1139 612 q 1088 644 1117 644 l 1088 644 q 1004 625 1044 644 q 926 558 964 605 q 852 433 888 511 q 781 237 816 355 l 781 237 q 807 230 794 233 q 831 223 819 226 l 831 223 q 822 212 836 219 q 787 206 807 205 l 787 206 q 773 211 783 207 l 773 211 q 767 187 770 199 q 759 161 763 174 l 759 161 q 772 44 728 44 l 772 44 q 848 100 811 44 l 848 100 q 854 101 851 103 q 856 94 857 99 l 856 94 q 832 61 845 77 q 803 31 818 44 q 774 9 788 17 q 747 0 759 0 l 747 0 q 706 31 717 0 q 711 127 694 61 l 711 127 q 738 222 723 178 l 738 222 q 612 254 679 240 q 473 274 545 268 l 473 274 q 410 149 445 201 q 335 64 375 97 q 249 16 294 31 q 154 0 203 0 l 154 0 q 76 26 102 0 q 50 92 50 51 l 50 92 q 74 167 50 131 q 142 231 97 203 q 251 275 186 258 q 398 291 315 291 l 398 291 q 420 291 409 291 q 442 290 431 291 l 442 290 q 451 319 447 304 q 460 349 455 333 l 460 349 q 492 450 476 408 q 523 520 507 491 q 555 565 538 548 q 590 591 571 581 l 590 591 q 529 608 564 601 q 451 615 493 615 l 451 615 q 371 601 404 615 q 318 563 337 587 q 292 508 298 539 q 292 443 285 477 l 292 443 q 288 437 291 438 q 282 440 285 436 l 282 440 q 282 520 273 482 q 317 585 291 557 q 386 629 343 613 q 487 645 428 645 l 487 645 q 567 636 528 645 q 637 613 606 626 l 637 613 q 637 602 641 607 q 618 591 633 597 l 618 591 q 584 569 598 583 q 557 531 569 555 q 534 472 545 507 q 510 387 523 437 l 510 387 q 495 336 502 361 q 479 288 487 311 l 479 288 q 614 272 545 283 q 746 246 683 261 l 746 246 q 824 430 780 349 q 915 566 867 510 q 1012 652 962 622 q 1109 681 1061 681 z m 181 24 l 181 24 q 262 37 225 24 q 330 79 299 49 q 388 156 361 108 q 438 276 414 204 l 438 276 q 409 278 423 278 q 379 278 394 278 l 379 278 q 252 265 308 278 q 158 228 196 251 q 100 175 120 205 q 80 112 80 145 l 80 112 q 107 47 80 69 q 181 24 133 24 z"},"I":{"ha":554,"x_min":50,"x_max":741,"o":"m 738 645 l 738 645 q 740 639 741 643 q 735 630 739 635 q 726 620 731 625 q 717 613 721 615 l 717 613 q 681 597 697 607 q 650 566 665 587 q 621 509 635 545 q 592 414 607 472 l 592 414 q 494 182 556 277 l 494 182 q 521 189 508 184 q 540 198 533 194 l 540 198 q 544 197 543 199 q 543 191 545 194 l 543 191 q 488 172 522 177 l 488 172 q 353 44 430 88 q 181 0 276 0 l 181 0 q 86 27 121 0 q 50 93 50 54 l 50 93 q 76 155 50 124 q 146 206 102 186 l 146 206 q 152 202 151 205 q 150 197 152 199 l 150 197 q 104 158 119 180 q 89 113 89 136 l 89 113 q 120 54 89 79 q 214 29 151 29 l 214 29 q 355 62 293 29 q 463 171 416 94 l 463 171 q 385 210 412 174 q 358 303 358 246 l 358 303 q 388 426 358 365 q 470 536 418 487 q 591 615 521 585 q 738 645 660 645 z m 549 392 l 549 392 q 572 468 560 434 q 599 527 584 501 q 633 573 614 553 q 674 606 651 592 l 674 606 q 549 568 605 598 q 454 495 493 537 q 393 404 414 453 q 371 307 371 354 l 371 307 q 398 216 371 247 q 469 181 424 184 l 469 181 q 512 274 492 221 q 549 392 532 326 z"},"J":{"ha":634,"x_min":0,"x_max":825,"o":"m 822 644 l 822 644 q 824 638 825 642 q 819 629 822 634 q 810 619 815 624 q 801 612 805 614 l 801 612 q 763 594 780 606 q 730 559 745 582 q 702 501 715 536 q 675 413 688 465 l 675 413 q 638 290 658 347 q 595 182 618 233 l 595 182 q 618 189 607 184 q 635 197 629 193 l 635 197 q 639 190 642 197 l 639 190 q 591 172 621 177 l 591 172 q 496 13 548 80 q 386 -98 444 -54 q 265 -163 328 -142 q 135 -185 201 -185 l 135 -185 q 33 -152 66 -185 q 0 -72 0 -120 l 0 -72 q 21 7 0 -34 q 79 84 42 48 q 166 147 115 120 q 276 185 216 174 l 276 185 q 281 181 281 185 q 276 175 281 177 l 276 175 q 179 143 223 165 q 103 90 135 120 q 53 25 71 60 q 35 -46 35 -10 l 35 -46 q 66 -126 35 -96 q 169 -157 96 -157 l 169 -157 q 283 -139 228 -157 q 386 -82 337 -121 q 479 19 435 -43 q 560 169 522 81 l 560 169 q 475 207 507 171 q 442 302 442 242 l 442 302 q 472 425 442 364 q 554 535 502 486 q 675 614 605 584 q 822 644 744 644 z m 633 391 l 633 391 q 686 530 655 478 q 758 606 717 582 l 758 606 q 633 567 689 597 q 538 495 577 537 q 477 403 498 452 q 455 306 455 353 l 455 306 q 484 215 455 248 q 564 179 513 182 l 564 179 q 633 391 601 270 z"},"K":{"ha":936,"x_min":50,"x_max":996,"o":"m 551 347 l 551 347 q 503 196 536 261 q 423 88 470 131 q 315 22 375 44 q 187 0 255 0 l 187 0 q 83 31 116 0 q 50 108 50 62 l 50 108 q 56 149 50 128 q 73 187 62 169 q 99 219 83 205 q 132 242 114 233 l 132 242 q 140 239 138 242 q 139 232 141 236 l 139 232 q 99 193 113 218 q 85 136 85 167 l 85 136 q 119 58 85 88 q 213 27 152 27 l 213 27 q 322 43 274 27 q 405 92 369 58 q 466 181 441 126 q 504 313 490 235 l 504 313 q 531 433 517 385 q 559 513 544 481 q 591 561 574 544 q 628 589 608 578 l 628 589 q 567 606 602 599 q 491 612 532 612 l 491 612 q 382 591 429 612 q 306 532 335 569 q 266 445 276 495 q 268 336 256 394 l 268 336 q 264 329 268 331 q 257 332 260 327 l 257 332 q 255 451 243 394 q 302 550 267 507 q 393 619 336 593 q 527 644 450 644 l 527 644 q 608 635 569 644 q 678 612 647 626 l 678 612 q 678 602 682 606 q 658 590 673 597 l 658 590 q 622 565 637 581 q 594 521 606 549 q 572 451 582 493 q 551 347 561 408 z m 615 368 l 615 368 q 659 228 637 290 q 707 122 681 165 q 766 55 733 78 q 842 32 799 32 l 842 32 q 883 44 864 32 q 912 73 901 55 l 912 73 q 918 73 915 76 q 920 65 921 70 l 920 65 q 879 19 905 37 q 813 0 852 0 l 813 0 q 732 28 767 0 q 670 102 697 55 q 623 211 643 149 q 585 341 602 273 l 585 341 q 589 361 582 351 l 589 361 q 683 471 634 419 q 779 561 731 523 q 872 622 827 599 q 955 644 917 644 l 955 644 q 984 631 972 644 q 996 597 996 618 l 996 597 q 994 572 996 583 q 984 544 991 560 l 984 544 q 978 542 981 541 q 974 547 975 543 l 974 547 q 968 589 979 571 q 923 606 956 606 l 923 606 q 858 589 895 606 q 780 540 821 571 q 697 464 739 508 q 615 368 654 420 z"},"L":{"ha":657,"x_min":30,"x_max":725,"o":"m 660 644 l 660 644 q 709 623 692 644 q 725 571 725 602 l 725 571 q 718 529 725 551 q 702 489 711 507 l 702 489 q 695 488 698 486 q 692 494 691 489 l 692 494 q 699 531 699 512 q 692 566 699 550 q 668 591 684 581 q 626 601 651 601 l 626 601 q 560 588 590 601 q 505 540 530 574 q 456 448 479 506 q 410 299 433 389 l 410 299 q 366 173 391 227 q 308 82 341 119 l 308 82 q 399 52 351 65 q 505 39 446 39 l 505 39 q 583 56 552 39 q 636 118 613 72 l 636 118 q 643 118 640 120 q 644 110 646 115 l 644 110 q 580 28 620 56 q 473 0 540 0 l 473 0 q 368 17 414 0 q 279 54 322 34 l 279 54 q 107 0 212 0 l 107 0 q 50 16 69 0 q 30 49 30 31 l 30 49 q 38 76 30 62 q 60 100 45 89 q 94 117 74 110 q 139 124 114 124 l 139 124 q 215 113 178 124 q 289 88 251 102 l 289 88 q 368 274 334 146 l 368 274 q 420 425 390 356 q 486 542 449 493 q 566 617 522 590 q 660 644 610 644 z m 139 21 l 139 21 q 207 30 177 21 q 263 61 237 39 l 263 61 q 192 90 228 78 q 111 102 155 102 l 111 102 q 71 93 83 102 q 59 70 59 84 l 59 70 q 80 36 59 50 q 139 21 101 21 z"},"M":{"ha":1219,"x_min":51,"x_max":1295,"o":"m 1286 656 l 1286 656 q 1293 651 1291 656 q 1292 642 1295 646 l 1292 642 q 1206 542 1244 600 q 1139 418 1167 483 q 1096 286 1111 353 q 1081 159 1081 218 l 1081 159 q 1094 75 1081 105 q 1130 44 1107 44 l 1130 44 q 1205 100 1168 44 l 1205 100 q 1212 101 1208 103 q 1214 94 1215 98 l 1214 94 q 1190 61 1203 77 q 1161 31 1176 44 q 1132 9 1146 17 q 1105 0 1117 0 l 1105 0 q 1059 31 1079 0 q 1039 124 1039 61 l 1039 124 q 1050 236 1039 176 q 1081 357 1060 296 q 1134 474 1102 417 q 1206 578 1165 531 l 1206 578 q 1080 468 1144 532 q 956 330 1015 403 q 845 179 896 256 q 760 29 794 101 l 760 29 q 745 11 756 22 q 728 0 734 0 l 728 0 q 721 7 721 0 l 721 7 q 776 283 740 162 q 860 505 811 403 l 860 505 q 703 291 780 385 q 549 133 626 197 q 392 34 472 68 q 226 0 312 0 l 226 0 q 153 13 185 0 q 98 49 121 26 q 63 103 75 72 q 51 171 51 134 l 51 171 q 74 259 51 219 q 140 322 96 299 l 140 322 q 146 320 144 324 q 145 312 147 316 l 145 312 q 102 266 114 292 q 89 198 89 240 l 89 198 q 100 136 89 165 q 133 84 111 106 q 186 49 154 62 q 259 36 217 36 l 259 36 q 428 77 347 36 q 584 188 508 117 q 733 354 660 259 q 879 559 806 449 l 879 559 q 733 600 809 583 q 586 616 656 616 l 586 616 q 461 573 511 616 q 400 440 411 529 l 400 440 q 395 436 398 435 q 390 442 391 437 l 390 442 q 462 592 401 540 q 621 644 523 644 l 621 644 q 704 639 662 644 q 786 625 746 633 q 863 606 826 616 q 929 585 899 595 l 929 585 q 934 586 931 586 q 938 587 936 586 l 938 587 q 943 583 942 587 q 941 576 943 579 l 941 576 q 918 554 927 567 q 898 520 909 541 l 898 520 q 819 311 848 420 q 769 89 789 201 l 769 89 q 877 255 816 172 q 1006 413 938 338 q 1146 551 1074 488 q 1286 656 1218 613 z"},"N":{"ha":990,"x_min":43,"x_max":1277,"o":"m 1216 644 l 1216 644 q 1261 623 1244 644 q 1277 548 1277 601 l 1277 548 q 1272 542 1276 542 q 1265 547 1267 541 l 1265 547 q 1252 578 1263 565 q 1225 597 1241 591 q 1190 600 1209 602 q 1151 583 1170 597 l 1151 583 q 1061 484 1102 548 q 989 343 1020 420 q 940 180 958 265 q 919 18 922 95 l 919 18 q 917 4 919 7 q 910 0 915 0 l 910 0 q 904 5 906 0 q 899 15 901 9 l 899 15 q 791 317 854 186 q 647 522 728 447 l 647 522 q 584 301 625 398 q 488 137 543 204 q 368 35 433 70 q 234 0 303 0 l 234 0 q 119 31 163 0 q 59 106 75 61 q 56 201 43 150 q 112 290 69 251 l 112 290 q 120 288 117 291 q 120 279 122 284 l 120 279 q 83 210 91 250 q 91 132 75 169 q 148 69 107 95 q 259 43 189 43 l 259 43 q 388 77 328 43 q 496 174 448 110 q 577 330 543 237 q 627 540 610 422 l 627 540 q 540 593 585 575 q 446 611 495 611 l 446 611 q 367 589 398 611 q 321 540 335 567 l 321 540 q 315 539 318 538 q 310 545 311 540 l 310 545 q 335 582 319 564 q 370 614 350 600 q 416 636 390 627 q 472 644 442 644 l 472 644 q 555 629 514 644 q 633 584 595 613 l 633 584 l 633 586 q 638 600 634 592 q 647 615 642 608 q 655 624 651 621 q 660 621 659 626 l 660 621 q 658 594 659 607 q 654 567 656 580 l 654 567 q 736 478 697 529 q 808 367 775 427 q 868 241 841 307 q 914 106 894 174 l 914 106 q 937 230 921 166 q 976 353 953 293 q 1028 465 999 412 q 1088 558 1056 518 q 1152 621 1119 598 q 1216 644 1184 644 z"},"O":{"ha":606,"x_min":70,"x_max":651,"o":"m 446 645 l 446 645 q 531 627 493 645 q 596 577 569 609 q 637 502 622 545 q 651 406 651 458 l 651 406 q 620 251 651 324 q 537 122 588 177 q 420 33 486 66 q 285 0 354 0 l 285 0 q 192 19 232 0 q 125 70 152 38 q 84 144 98 102 q 70 232 70 186 l 70 232 q 99 383 70 308 q 179 515 128 457 q 299 609 230 573 q 446 645 367 645 z m 328 31 l 328 31 q 431 56 380 31 q 521 127 481 81 q 586 236 561 172 q 611 376 611 299 l 611 376 q 559 549 611 486 q 414 611 506 611 l 414 611 q 292 584 347 611 q 196 510 236 557 q 134 400 156 463 q 112 265 112 337 l 112 265 q 127 170 112 213 q 169 96 141 127 q 237 48 196 65 q 328 31 277 31 z"},"P":{"ha":783,"x_min":50,"x_max":873,"o":"m 691 641 l 691 641 q 769 617 735 635 q 826 571 803 598 q 861 512 849 544 q 873 444 873 479 l 873 444 q 857 359 873 398 q 810 290 840 319 q 735 243 779 260 q 633 226 690 226 l 633 226 q 526 259 566 226 l 526 259 q 384 62 466 124 q 203 0 301 0 l 203 0 q 137 13 165 0 q 89 45 108 25 q 60 92 69 65 q 50 146 50 118 l 50 146 q 56 185 50 165 q 71 222 61 204 q 94 254 80 239 q 125 276 108 268 l 125 276 q 131 269 135 278 l 131 269 q 88 226 102 253 q 73 168 73 199 l 73 168 q 84 114 73 139 q 114 70 94 89 q 163 41 134 51 q 230 30 192 30 l 230 30 q 315 42 276 30 q 386 84 353 54 q 446 163 418 113 q 500 287 474 212 l 500 287 q 481 322 489 303 q 468 364 473 341 l 468 364 q 472 370 469 368 q 477 368 475 371 l 477 368 q 505 303 486 329 l 505 303 q 526 372 515 334 l 526 372 q 577 519 549 457 q 642 619 604 580 l 642 619 q 630 620 636 620 q 616 620 623 620 l 616 620 q 437 569 510 620 q 334 418 363 518 l 334 418 q 328 418 331 415 q 325 428 325 420 l 325 428 q 438 586 359 528 q 647 644 517 644 l 647 644 q 659 644 653 644 q 669 643 664 644 l 669 643 q 748 680 703 669 l 748 680 q 754 677 753 680 q 749 672 754 674 l 749 672 q 718 660 732 667 q 691 641 704 652 z m 643 246 l 643 246 q 720 260 685 246 q 779 299 754 274 q 816 356 803 323 q 829 427 829 389 l 829 427 q 819 494 829 462 q 788 550 808 525 q 737 592 767 574 q 667 616 706 609 l 667 616 q 619 534 640 583 q 581 420 598 485 l 581 420 q 533 275 560 340 l 533 275 q 643 246 573 246 z"},"Q":{"ha":563,"x_min":59,"x_max":760,"o":"m 407 644 l 407 644 q 494 629 456 644 q 558 585 532 613 q 598 517 584 556 q 611 430 611 478 l 611 430 q 578 282 611 352 q 488 158 544 212 q 359 67 432 103 q 204 21 285 31 l 204 21 q 261 -2 230 12 q 326 -33 292 -17 q 396 -67 359 -50 q 468 -98 432 -84 l 468 -98 q 538 -120 506 -113 q 607 -127 569 -127 l 607 -127 q 692 -113 658 -127 q 749 -74 725 -100 l 749 -74 q 756 -73 752 -72 q 758 -80 760 -75 l 758 -80 q 689 -142 731 -118 q 586 -167 646 -167 l 586 -167 q 548 -165 565 -167 q 513 -158 530 -163 q 477 -147 495 -154 q 438 -131 459 -141 l 438 -131 q 336 -82 388 -109 q 236 -31 284 -55 q 143 8 187 -8 q 66 22 99 23 l 66 22 q 60 30 61 24 q 70 41 59 35 l 70 41 q 107 52 89 52 l 107 52 q 137 44 119 52 q 169 36 155 36 l 169 36 q 318 63 246 36 q 444 140 389 90 q 531 258 498 189 q 564 409 564 326 l 564 409 q 553 495 564 455 q 520 563 542 534 q 467 607 498 591 q 393 623 435 623 l 393 623 q 291 600 337 623 q 210 534 244 576 q 158 434 176 492 q 139 304 139 375 l 139 304 q 163 211 139 250 q 233 164 186 172 l 233 164 q 282 172 268 158 l 282 172 q 288 170 286 173 q 289 163 290 167 l 289 163 q 261 145 280 152 q 219 137 242 137 l 219 137 q 171 149 192 137 q 135 182 150 161 q 112 230 120 202 q 104 289 104 257 l 104 289 q 128 421 104 357 q 192 535 151 485 q 288 614 232 584 q 407 644 343 644 z"},"R":{"ha":854,"x_min":49,"x_max":864,"o":"m 853 75 l 853 75 q 860 78 855 78 q 863 72 864 77 l 863 72 q 813 20 841 39 q 753 0 785 0 l 753 0 q 678 25 709 0 q 625 93 647 50 q 587 191 602 135 q 559 308 572 247 l 559 308 q 563 317 559 314 l 563 317 q 574 322 568 319 q 591 329 580 324 l 591 329 q 600 329 594 330 q 614 326 605 327 q 636 324 623 324 q 665 328 648 324 l 665 328 q 746 376 717 340 q 775 466 775 412 l 775 466 q 737 572 775 530 q 632 619 699 614 l 632 619 q 583 537 604 587 q 543 419 561 486 l 543 419 q 475 230 514 309 q 387 99 435 150 q 283 24 339 48 q 165 0 227 0 l 165 0 q 114 9 135 0 q 78 34 92 18 q 56 71 63 50 q 49 114 49 91 l 49 114 q 70 190 49 152 q 124 244 90 227 l 124 244 q 131 236 133 246 l 131 236 q 87 194 101 221 q 72 136 72 166 l 72 136 q 103 57 72 84 q 192 30 134 30 l 192 30 q 287 46 244 30 q 364 100 329 61 q 429 204 399 138 q 487 371 459 270 l 487 371 q 539 519 511 457 q 605 620 567 580 l 605 620 q 319 477 417 616 l 319 477 q 313 477 316 475 q 311 484 309 479 l 311 484 q 439 597 359 554 q 632 643 519 639 l 632 643 q 668 666 649 656 q 710 680 687 675 l 710 680 q 715 677 715 680 q 710 671 715 673 l 710 671 q 657 644 681 663 l 657 644 q 721 631 692 644 q 771 595 750 617 q 804 546 792 573 q 815 488 815 518 l 815 488 q 797 414 815 448 q 750 356 779 380 q 682 320 720 332 q 602 309 643 307 l 602 309 q 637 169 618 223 q 679 85 656 115 q 729 43 702 54 q 785 32 755 32 l 785 32 q 822 43 806 32 q 853 75 837 53 z"},"S":{"ha":480,"x_min":50,"x_max":525,"o":"m 50 121 l 50 121 q 68 184 50 155 q 118 229 85 212 l 118 229 q 124 227 122 231 q 123 219 125 222 l 123 219 q 87 147 87 199 l 87 147 q 98 99 87 121 q 130 60 109 76 q 180 33 150 43 q 247 23 209 23 l 247 23 q 382 62 338 23 q 425 158 425 101 l 425 158 q 414 227 425 196 q 387 286 403 258 q 351 338 370 313 q 316 388 332 363 q 288 440 299 413 q 277 499 277 467 l 277 499 q 289 556 277 529 q 321 602 301 582 q 369 633 341 621 q 428 644 396 644 l 428 644 q 499 621 473 644 q 525 569 525 598 l 525 569 q 514 532 525 552 q 492 497 503 512 l 492 497 q 486 498 488 495 q 483 505 483 500 l 483 505 q 496 549 496 521 l 496 549 q 471 599 496 578 q 403 619 445 619 l 403 619 q 334 595 360 619 q 307 533 307 570 l 307 533 q 319 477 307 503 q 347 424 330 450 q 384 371 364 397 q 420 316 403 344 q 449 256 437 287 q 460 187 460 224 l 460 187 q 442 112 460 146 q 393 52 424 77 q 320 14 362 27 q 231 0 278 0 l 231 0 q 97 34 143 0 q 50 121 50 68 z"},"T":{"ha":577,"x_min":50,"x_max":815,"o":"m 809 587 l 809 587 q 808 572 815 581 l 808 572 q 784 552 792 549 l 784 552 q 760 560 772 556 q 735 566 748 563 l 735 566 q 635 508 679 561 q 556 339 591 454 l 556 339 q 412 86 504 170 q 188 1 319 1 l 188 1 q 126 11 152 1 q 83 36 100 20 q 58 72 66 51 q 50 113 50 92 l 50 113 q 109 213 50 173 l 109 213 q 114 209 113 213 q 113 202 115 205 l 113 202 q 93 179 99 191 q 86 143 86 166 l 86 143 q 122 63 86 92 q 227 33 157 33 l 227 33 q 315 46 275 33 q 389 91 355 59 q 451 175 422 122 q 505 308 479 228 l 505 308 q 591 489 541 420 q 704 574 641 557 l 704 574 q 565 601 637 591 q 422 611 493 611 l 422 611 q 323 593 366 611 q 250 543 279 574 q 208 471 221 512 q 201 384 195 429 l 201 384 q 190 383 195 375 l 190 383 q 198 479 184 432 q 244 563 211 526 q 330 622 277 600 q 455 644 383 644 l 455 644 q 650 627 562 644 q 809 587 737 609 z"},"U":{"ha":752,"x_min":64,"x_max":846,"o":"m 441 586 l 441 586 q 376 604 415 596 q 296 612 337 612 l 296 612 q 191 586 235 612 q 121 517 147 559 q 87 421 95 474 q 89 316 78 368 l 89 316 q 84 310 88 312 q 78 312 80 308 l 78 312 q 76 435 64 375 q 121 541 88 494 q 208 616 154 587 q 332 644 261 644 l 332 644 q 413 635 374 644 q 483 612 452 626 l 483 612 q 480 600 489 607 l 480 600 q 387 506 427 558 q 318 395 346 453 q 275 275 289 336 q 260 153 260 213 l 260 153 q 283 61 260 87 q 344 35 306 35 l 344 35 q 446 70 396 35 q 549 178 496 105 q 660 361 601 250 q 786 622 718 471 l 786 622 q 803 637 790 630 q 830 644 816 644 l 830 644 q 846 637 846 644 l 846 637 q 806 578 828 616 q 763 491 784 539 q 721 387 741 442 q 684 280 700 332 q 659 181 668 227 q 649 101 649 134 l 649 101 q 686 44 649 44 l 686 44 q 760 100 724 44 l 760 100 q 767 101 763 103 q 770 94 771 98 l 770 94 q 746 61 759 77 q 717 31 732 44 q 688 9 702 17 q 661 0 673 0 l 661 0 q 621 23 633 0 q 608 78 608 46 l 608 78 q 623 197 608 128 q 670 346 638 266 l 670 346 q 490 88 579 175 q 313 0 401 0 l 313 0 q 241 33 265 0 q 216 125 216 65 l 216 125 q 232 248 216 186 q 276 370 247 310 q 347 484 305 429 q 441 586 388 539 z"},"V":{"ha":661,"x_min":70,"x_max":751,"o":"m 751 526 l 751 526 q 718 384 751 449 q 631 257 685 318 q 508 133 577 195 q 367 -1 439 70 l 367 -1 q 359 3 360 -1 q 359 12 357 6 q 363 25 360 18 q 369 39 366 32 l 369 39 q 405 156 391 92 q 423 283 419 219 q 420 406 426 346 q 394 511 413 465 q 342 585 374 557 q 263 612 310 612 l 263 612 q 152 555 195 612 q 80 387 109 497 l 80 387 q 74 384 78 383 q 70 389 70 385 l 70 389 q 152 579 99 514 q 280 644 205 644 l 280 644 q 359 621 326 644 q 414 558 392 598 q 446 464 436 518 q 456 346 456 409 q 446 213 456 282 q 416 73 435 143 l 416 73 q 542 182 486 131 q 636 283 598 233 q 695 383 674 332 q 715 492 715 434 l 715 492 q 692 571 715 542 q 634 602 669 600 l 634 602 q 586 562 606 603 l 586 562 q 580 562 583 560 q 577 569 577 564 l 577 569 q 592 597 582 583 q 612 621 601 610 q 633 638 622 631 q 652 644 644 644 l 652 644 q 691 635 673 644 q 723 610 709 626 q 744 573 736 594 q 751 526 751 551 z"},"W":{"ha":822,"x_min":70,"x_max":932,"o":"m 577 35 l 577 35 q 576 159 581 93 q 565 286 570 224 q 560 398 560 347 q 576 477 560 448 l 576 477 q 509 378 539 424 q 452 285 479 332 q 400 185 425 237 q 346 68 374 132 l 346 68 q 327 17 331 33 q 313 0 322 0 l 313 0 q 303 8 305 0 q 308 35 301 15 l 308 35 q 376 276 359 169 q 381 458 392 383 q 333 573 369 533 q 242 613 296 613 l 242 613 q 176 598 205 613 q 126 556 146 583 q 94 492 105 529 q 83 412 83 455 l 83 412 q 77 405 81 406 q 72 409 72 404 l 72 409 q 84 501 70 457 q 125 577 98 544 q 189 630 151 610 q 275 649 227 649 l 275 649 q 344 628 316 649 q 388 570 372 607 q 409 482 404 532 q 409 372 414 431 q 390 248 404 313 q 353 118 375 183 l 353 118 q 417 249 380 180 q 495 382 453 317 q 580 503 536 447 q 665 597 623 559 l 665 597 q 671 595 668 598 q 674 587 673 592 q 675 577 675 582 q 671 568 674 572 l 671 568 q 648 551 657 559 q 627 528 638 542 l 627 528 q 604 472 610 506 q 597 398 597 438 q 601 313 596 358 q 609 224 605 268 q 615 137 613 179 q 613 60 617 95 l 613 60 q 700 170 651 117 q 793 277 749 222 q 867 393 837 332 q 897 529 897 454 l 897 529 q 888 582 897 561 q 862 605 879 603 l 862 605 q 841 594 850 606 q 825 566 832 581 l 825 566 q 815 573 815 562 l 815 573 q 844 623 826 601 q 879 644 862 644 l 879 644 q 918 620 903 644 q 932 562 932 596 l 932 562 q 916 453 932 502 q 874 360 900 403 q 813 276 847 316 q 744 197 779 236 q 674 116 708 157 q 611 27 639 74 l 611 27 q 597 8 603 15 q 582 0 590 0 l 582 0 q 576 3 577 0 q 574 11 574 6 q 576 23 574 16 q 577 35 577 29 z"},"X":{"ha":813,"x_min":50,"x_max":846,"o":"m 814 645 l 814 645 q 837 632 828 645 q 846 590 846 618 l 846 590 q 838 539 846 567 q 819 491 830 510 l 819 491 q 811 491 815 489 q 808 498 807 493 l 808 498 q 818 544 818 522 l 818 544 q 807 584 818 570 q 768 597 796 597 l 768 597 q 697 578 733 597 q 625 524 660 558 q 557 442 589 489 q 499 340 525 395 l 499 340 q 585 123 529 202 q 715 43 640 43 l 715 43 q 763 60 741 43 q 800 115 784 76 l 800 115 q 807 117 803 119 q 810 107 810 114 l 810 107 q 757 24 784 47 q 695 1 730 1 l 695 1 q 616 26 651 1 q 552 92 580 50 q 504 188 524 133 q 471 301 484 242 l 471 301 l 471 302 q 308 77 393 152 q 141 1 222 1 l 141 1 q 75 18 99 1 q 50 58 50 35 l 50 58 q 54 81 50 66 q 66 113 58 95 q 84 149 73 130 q 106 186 94 168 l 106 186 q 114 187 109 189 q 117 178 119 184 l 117 178 q 96 134 101 155 q 93 92 90 113 l 93 92 q 115 56 96 69 q 168 43 133 43 l 168 43 q 252 64 212 43 q 330 121 292 84 q 401 210 367 158 q 467 323 435 261 l 467 323 q 447 437 454 386 q 432 524 439 488 q 416 578 425 559 q 389 597 406 597 l 389 597 q 350 574 369 597 q 311 514 330 550 l 311 514 q 302 512 306 509 q 299 520 297 514 l 299 520 q 325 567 310 544 q 356 607 340 589 q 387 635 371 624 q 413 645 402 645 l 413 645 q 447 620 435 645 q 466 555 459 595 q 479 465 473 515 q 494 364 484 414 l 494 364 q 559 477 522 425 q 637 566 595 529 q 724 624 679 603 q 814 645 769 645 z"},"Y":{"ha":662,"x_min":7,"x_max":874,"o":"m 427 644 l 427 644 q 456 635 445 644 q 469 605 466 626 q 466 551 472 584 q 444 468 460 517 l 444 468 q 408 358 424 407 q 384 258 392 308 l 384 258 q 390 193 378 215 q 441 171 402 171 l 441 171 q 622 286 528 171 q 829 628 716 401 l 829 628 q 863 644 848 644 l 863 644 q 871 630 874 644 l 871 630 q 681 265 768 411 q 513 32 594 119 q 352 -92 432 -56 q 183 -128 272 -128 l 183 -128 q 108 -114 141 -128 q 53 -76 75 -100 q 19 -20 30 -52 q 7 46 7 11 l 7 46 q 21 120 7 84 q 61 185 34 156 q 127 233 87 213 q 219 259 166 253 l 219 259 q 224 254 224 258 q 218 245 223 250 l 218 245 q 140 224 172 239 q 86 185 107 208 q 56 133 65 162 q 46 71 46 104 l 46 71 q 90 -49 46 -5 q 221 -94 134 -94 l 221 -94 q 343 -72 285 -94 q 457 2 401 -50 q 570 140 513 54 q 688 351 626 225 l 688 351 q 626 266 660 305 q 555 197 591 226 q 484 151 519 167 q 418 134 448 134 l 418 134 q 355 160 373 134 q 343 232 336 186 l 343 232 q 368 342 351 287 q 400 448 384 397 l 400 448 q 423 530 416 498 q 429 581 430 562 q 421 607 428 600 q 401 614 414 614 l 401 614 q 376 608 389 614 q 351 593 363 602 q 329 573 339 584 q 312 551 318 562 l 312 551 q 305 551 308 547 q 302 559 301 554 l 302 559 q 322 585 309 570 q 353 613 335 600 q 389 635 370 626 q 427 644 408 644 z"},"Z":{"ha":625,"x_min":48,"x_max":716,"o":"m 435 644 l 435 644 q 527 634 485 644 q 620 608 569 624 l 620 608 q 657 601 645 600 q 683 614 669 602 l 683 614 q 707 619 690 619 l 707 619 q 714 611 716 619 l 714 611 q 580 487 651 553 q 434 351 508 420 q 287 211 360 281 q 145 77 213 141 l 145 77 q 194 73 169 79 q 250 58 219 66 q 322 43 281 50 q 419 35 363 35 l 419 35 q 533 66 489 35 q 608 167 577 96 l 608 167 q 617 167 612 169 q 620 159 622 164 l 620 159 q 578 86 600 117 q 529 33 556 54 q 466 2 501 12 q 385 -8 430 -8 l 385 -8 q 321 -4 349 -8 q 267 5 292 -1 q 220 19 242 11 q 172 33 197 26 l 172 33 q 120 36 141 42 q 70 0 98 29 l 70 0 q 56 4 64 -2 q 51 14 48 9 l 51 14 q 209 163 136 94 q 351 298 282 232 q 490 429 420 363 q 638 569 560 495 l 638 569 q 530 593 586 583 q 414 603 474 603 l 414 603 q 313 566 346 603 q 269 467 279 529 l 269 467 q 262 465 266 463 q 257 471 257 466 l 257 471 q 277 541 264 509 q 310 596 289 573 q 362 632 331 619 q 435 644 392 644 z"},"a":{"ha":294,"x_min":31,"x_max":293,"o":"m 270 63 l 270 63 q 275 63 272 65 q 277 57 278 61 l 277 57 q 236 14 256 28 q 201 0 215 0 l 201 0 q 187 9 192 0 q 180 34 181 18 q 181 69 178 49 q 189 109 183 88 l 189 109 q 132 37 162 67 q 74 0 102 6 l 74 0 q 44 18 56 0 q 31 72 31 35 l 31 72 q 45 138 31 105 q 81 197 58 170 q 134 239 104 223 q 197 255 164 255 l 197 255 q 228 251 215 255 q 252 239 241 247 l 252 239 q 269 249 258 244 q 288 253 279 253 l 288 253 q 291 248 293 253 l 291 248 q 252 186 268 220 q 226 120 235 152 q 215 64 217 88 q 218 30 212 39 l 218 30 q 236 30 223 23 q 270 63 249 36 z m 96 34 l 96 34 q 125 50 107 34 q 161 90 142 65 q 199 147 180 115 q 231 210 217 178 l 231 210 q 213 231 227 223 q 179 239 198 239 l 179 239 q 138 228 157 239 q 103 196 118 216 q 79 147 88 175 q 70 85 70 119 l 70 85 q 78 49 70 63 q 96 34 85 34 z"},"&":{"ha":507,"x_min":20,"x_max":503,"o":"m 501 204 l 501 204 q 499 197 503 199 q 490 199 494 194 l 490 199 q 469 217 482 210 q 436 224 455 224 l 436 224 q 393 211 412 224 q 357 178 374 198 q 322 132 339 157 q 286 83 305 107 l 286 83 q 346 44 313 58 q 418 30 379 30 l 418 30 q 473 56 452 30 l 473 56 q 484 60 477 61 q 483 48 491 59 l 483 48 q 444 13 467 26 q 388 0 421 0 l 388 0 q 318 14 350 0 q 259 53 285 28 l 259 53 q 206 15 236 30 q 137 0 176 0 l 137 0 q 53 30 85 0 q 20 107 20 60 l 20 107 q 33 159 20 137 q 65 198 45 181 q 109 230 84 215 q 158 259 133 244 l 158 259 q 150 337 150 302 l 150 337 q 159 390 150 365 q 182 434 167 415 q 215 464 196 453 q 255 475 234 475 l 255 475 q 284 459 272 475 q 296 423 296 443 l 296 423 q 287 371 296 394 q 263 329 278 347 q 229 295 248 310 q 188 266 209 279 l 188 266 q 222 170 199 216 q 278 91 244 124 l 278 91 q 317 145 298 116 q 355 199 335 174 q 398 240 375 224 q 449 256 420 256 l 449 256 q 484 241 471 256 q 501 204 496 225 z m 176 367 l 176 367 q 185 276 176 322 l 185 276 q 243 329 219 299 q 267 405 267 358 l 267 405 q 259 437 267 424 q 233 450 250 450 l 233 450 q 191 427 206 450 q 176 367 176 403 z m 59 124 l 59 124 q 88 53 59 79 q 169 27 117 27 l 169 27 q 213 36 193 27 q 250 61 233 45 l 250 61 q 193 147 215 97 q 160 248 171 196 l 160 248 q 122 223 140 235 q 90 195 104 210 q 68 163 76 180 q 59 124 59 146 z"},"@":{"ha":492,"x_min":50,"x_max":452,"o":"m 324 65 l 324 65 q 401 102 371 65 q 431 198 431 138 l 431 198 q 420 256 431 229 q 390 303 409 283 q 343 335 370 323 q 281 347 315 347 l 281 347 q 197 331 234 347 q 134 287 160 315 q 93 219 107 258 q 79 134 79 180 l 79 134 q 91 63 79 96 q 126 5 103 29 q 182 -34 148 -20 q 259 -49 215 -49 l 259 -49 q 352 -27 315 -49 q 408 31 388 -5 l 408 31 q 414 30 411 33 q 416 22 417 27 l 416 22 q 343 -49 390 -23 q 233 -76 295 -76 l 233 -76 q 156 -61 190 -76 q 99 -20 122 -46 q 63 40 75 6 q 50 113 50 74 l 50 113 q 68 208 50 162 q 118 288 85 253 q 196 344 150 323 q 300 364 242 364 l 300 364 q 361 352 333 364 q 409 320 388 340 q 441 272 429 299 q 452 213 452 244 l 452 213 q 440 145 452 177 q 406 90 427 113 q 357 54 384 67 q 299 40 329 40 l 299 40 q 273 69 278 40 q 282 137 267 98 l 282 137 q 236 78 259 103 q 189 48 212 53 l 189 48 q 165 63 175 48 q 154 107 154 77 l 154 107 q 165 160 154 133 q 195 207 176 186 q 237 242 213 228 q 288 255 261 255 l 288 255 q 332 241 315 255 l 332 241 q 345 249 337 245 q 361 253 353 253 l 361 253 q 364 249 364 253 l 364 249 q 328 190 342 222 q 308 131 314 158 q 306 84 302 103 q 324 65 310 65 z m 208 80 l 208 80 q 231 93 217 80 q 259 125 244 105 q 288 169 273 145 q 313 217 302 193 l 313 217 q 273 239 305 239 l 273 239 q 241 231 256 239 q 213 206 225 222 q 194 169 201 190 q 187 120 187 147 l 187 120 q 194 92 187 103 q 208 80 200 80 z"},"b":{"ha":247,"x_min":35,"x_max":532,"o":"m 471 756 l 471 756 q 518 731 503 756 q 524 673 532 706 l 524 673 q 514 674 518 667 l 514 674 q 497 709 512 694 q 449 723 481 723 l 449 723 q 358 696 404 723 q 266 606 311 669 q 177 440 220 543 q 93 183 133 336 l 93 183 q 114 209 102 196 q 139 232 125 221 q 168 249 153 242 q 198 255 183 255 l 198 255 q 231 236 221 255 q 240 192 240 217 l 240 192 q 224 126 240 160 q 184 63 208 91 q 130 17 159 35 q 76 -1 101 -1 l 76 -1 q 47 10 58 -1 q 35 46 35 20 l 35 46 q 42 104 35 68 q 61 184 49 140 q 90 275 73 227 q 127 370 107 323 l 127 370 q 296 662 211 568 q 471 756 380 756 z m 176 222 l 176 222 q 144 213 161 222 q 112 184 127 203 q 87 136 97 165 q 73 69 76 107 l 73 69 q 79 38 71 47 q 101 29 86 29 l 101 29 q 139 42 120 29 q 173 74 158 54 q 198 119 188 94 q 207 169 207 144 l 207 169 q 198 210 207 198 q 176 222 189 222 z"},"[":{"ha":318,"x_min":79,"x_max":431,"o":"m 249 612 l 249 612 q 254 621 251 619 q 265 623 256 623 l 265 623 q 306 623 288 623 q 341 623 324 623 q 377 623 358 623 q 421 621 396 622 l 421 621 q 426 612 431 619 q 409 604 421 605 l 409 604 q 353 606 385 606 q 292 606 321 606 l 292 606 q 201 245 243 420 q 131 -79 158 70 l 131 -79 q 160 -79 148 -79 q 184 -80 172 -80 q 208 -79 195 -80 q 238 -79 220 -79 l 238 -79 q 243 -88 245 -82 q 224 -96 241 -95 l 224 -96 q 189 -96 202 -96 q 163 -95 176 -96 q 134 -94 150 -95 q 91 -94 118 -94 l 91 -94 q 79 -84 79 -94 l 79 -84 q 124 93 101 3 q 169 271 147 182 q 212 446 191 360 q 249 612 232 532 z"},"]":{"ha":339,"x_min":12,"x_max":364,"o":"m 194 -86 l 194 -86 q 190 -94 193 -92 q 178 -96 187 -96 l 178 -96 q 137 -96 155 -96 q 102 -96 119 -96 q 66 -95 85 -96 q 22 -95 47 -95 l 22 -95 q 17 -85 12 -93 q 35 -77 22 -78 l 35 -77 q 90 -79 58 -79 q 151 -79 122 -80 l 151 -79 q 243 282 200 107 q 312 605 285 456 l 312 605 q 283 607 295 606 q 259 607 270 607 q 236 607 248 607 q 205 606 223 606 l 205 606 q 200 615 198 608 q 219 623 202 621 l 219 623 q 254 623 241 623 q 280 622 267 622 q 309 622 293 622 q 352 620 325 621 l 352 620 q 364 611 364 620 l 364 611 q 319 435 341 524 q 274 256 296 345 q 232 81 252 167 q 194 -86 211 -6 z"},"c":{"ha":203,"x_min":30,"x_max":208,"o":"m 178 175 l 178 175 q 173 180 173 175 l 173 180 q 174 215 181 200 q 143 230 166 230 l 143 230 q 113 219 127 230 q 89 187 99 207 q 73 139 79 166 q 67 79 67 111 l 67 79 q 101 30 67 30 l 101 30 q 179 77 140 30 l 179 77 q 186 77 183 79 q 187 69 189 74 l 187 69 q 136 20 164 40 q 81 -1 108 -1 l 81 -1 q 45 15 59 -1 q 30 59 30 31 l 30 59 q 42 129 30 94 q 72 192 53 164 q 114 238 90 220 q 163 255 138 255 l 163 255 q 196 245 184 255 q 208 221 208 235 l 208 221 q 205 209 208 216 q 198 195 202 202 q 188 183 193 188 q 178 175 182 177 z"},":":{"ha":156,"x_min":20,"x_max":139,"o":"m 33 0 l 33 0 q 20 21 20 0 l 20 21 q 24 35 20 27 q 35 49 28 42 q 51 61 42 56 q 67 65 59 65 l 67 65 q 75 61 72 65 q 77 50 77 56 l 77 50 q 73 34 77 42 q 62 18 68 25 q 48 5 55 10 q 33 0 40 0 z m 94 191 l 94 191 q 81 213 81 191 l 81 213 q 86 226 81 219 q 97 240 90 233 q 112 252 103 247 q 129 256 120 256 l 129 256 q 139 242 139 256 l 139 242 q 135 225 139 234 q 123 209 130 216 q 109 196 116 201 q 94 191 101 191 z"},",":{"ha":112,"x_min":-1,"x_max":87,"o":"m 75 66 l 75 66 q 84 54 80 64 q 87 31 87 43 l 87 31 q 64 -33 87 0 q 5 -88 40 -67 l 5 -88 q 0 -84 1 -88 q 2 -77 -1 -81 l 2 -77 q 38 -42 24 -63 q 52 2 52 -21 l 52 2 q 42 29 52 23 l 42 29 q 43 38 39 32 q 52 50 46 44 q 65 61 58 56 q 75 66 71 66 z"},"d":{"ha":285,"x_min":30,"x_max":642,"o":"m 602 756 l 602 756 q 635 736 628 756 q 628 686 642 716 l 628 686 q 618 689 620 680 l 618 689 q 610 711 620 703 q 582 719 600 719 l 582 719 q 509 694 546 719 q 437 625 472 669 q 369 520 402 580 q 308 390 336 460 q 258 244 280 320 q 221 90 235 167 l 221 90 q 219 50 217 67 q 233 32 221 32 l 233 32 q 255 44 244 32 q 275 69 266 55 l 275 69 q 281 69 277 71 q 283 63 284 67 l 283 63 q 269 43 278 54 q 250 23 260 32 q 228 7 239 13 q 208 0 217 0 l 208 0 q 185 15 191 0 q 180 52 178 29 l 180 52 q 184 84 181 69 q 191 116 187 99 l 191 116 q 167 76 182 95 q 136 40 152 56 q 105 14 120 24 q 78 0 89 3 l 78 0 q 46 15 61 0 q 30 61 30 29 l 30 61 q 43 135 30 99 q 79 197 56 170 q 131 241 101 224 q 194 257 160 257 l 194 257 q 214 254 205 257 q 229 246 222 251 l 229 246 q 273 359 247 300 q 328 475 298 418 q 392 582 358 531 q 461 672 425 633 q 532 733 496 710 q 602 756 568 756 z m 96 35 l 96 35 q 123 48 107 35 q 154 80 138 60 q 184 127 169 100 q 208 181 198 153 l 208 181 q 214 200 211 191 q 219 218 217 209 l 219 218 q 204 236 215 230 q 179 241 193 241 l 179 241 q 138 229 158 241 q 103 194 118 216 q 78 142 87 172 q 68 76 68 112 l 68 76 q 77 45 68 55 q 96 35 85 35 z"},"e":{"ha":206,"x_min":30,"x_max":206,"o":"m 206 212 l 206 212 q 195 186 206 198 q 165 165 184 174 q 122 147 146 155 q 70 132 97 139 l 70 132 q 69 110 69 121 q 68 86 68 99 l 68 86 q 79 44 68 61 q 110 27 90 27 l 110 27 q 148 37 130 27 q 179 64 165 47 l 179 64 q 185 63 183 66 q 185 56 187 60 l 185 56 q 143 17 168 33 q 89 0 117 0 l 89 0 q 47 17 63 0 q 30 67 30 34 l 30 67 q 41 131 30 97 q 70 192 52 164 q 112 238 88 220 q 161 256 135 256 l 161 256 q 193 243 180 256 q 206 212 206 229 z m 140 230 l 140 230 q 99 210 117 230 q 73 147 81 190 l 73 147 q 144 168 121 154 q 166 198 166 181 l 166 198 q 159 221 166 212 q 140 230 152 230 z"},"!":{"ha":189,"x_min":55,"x_max":322,"o":"m 68 0 l 68 0 q 55 22 55 0 l 55 22 q 60 35 55 28 q 71 49 64 42 q 86 61 77 56 q 103 65 94 65 l 103 65 q 113 51 113 65 l 113 51 q 109 34 113 43 q 97 18 104 25 q 83 5 90 10 q 68 0 75 0 z m 315 525 l 315 525 q 270 431 295 486 q 218 319 244 375 q 169 213 192 263 q 133 132 146 162 l 133 132 q 120 126 125 123 q 117 139 114 128 l 117 139 q 152 220 132 172 q 190 319 171 268 q 224 416 208 369 q 248 495 239 463 l 248 495 q 268 516 254 504 q 294 534 281 527 q 315 541 307 541 q 315 525 322 540 z"},"f":{"ha":156,"x_min":-291,"x_max":522,"o":"m 464 727 l 464 727 q 496 719 483 727 q 516 698 509 711 q 522 670 522 685 q 515 639 522 654 l 515 639 q 510 637 513 636 q 505 641 507 638 l 505 641 q 487 677 503 661 q 435 692 470 692 l 435 692 q 363 672 397 692 q 293 602 328 652 q 221 467 257 552 q 142 252 184 382 l 142 252 q 191 253 165 253 q 243 253 216 253 l 243 253 q 248 248 248 251 q 238 242 247 244 l 238 242 q 188 240 213 241 q 137 237 163 239 l 137 237 q 130 217 134 226 l 130 217 q 46 -2 89 86 q -42 -144 3 -91 q -133 -220 -87 -198 q -228 -243 -180 -243 l -228 -243 q -276 -228 -262 -243 q -291 -193 -291 -213 l -291 -193 q -287 -173 -291 -184 q -277 -155 -283 -163 l -277 -155 q -271 -154 -274 -152 q -269 -159 -269 -156 l -269 -159 q -272 -177 -273 -167 q -263 -197 -271 -188 q -241 -213 -256 -207 q -204 -220 -227 -220 l -204 -220 q -156 -214 -180 -220 q -109 -191 -133 -208 q -62 -145 -86 -175 q -14 -66 -39 -115 q 38 51 11 -18 q 94 215 65 120 l 94 215 q 97 225 96 220 q 100 234 98 229 l 100 234 q 66 230 83 232 q 32 223 49 227 l 32 223 q 30 228 27 224 q 39 236 32 232 q 54 244 45 240 q 71 248 63 247 l 71 248 q 88 250 79 249 q 105 251 96 250 l 105 251 q 183 447 141 359 q 270 597 224 534 q 365 693 316 659 q 464 727 414 727 z"},"g":{"ha":210,"x_min":-114,"x_max":235,"o":"m 226 270 l 226 270 q 232 270 229 272 q 233 263 235 267 l 233 263 q 213 242 225 251 q 183 233 201 232 l 183 233 q 192 194 192 218 l 192 194 q 185 152 192 171 q 169 116 178 133 q 151 84 160 99 q 136 53 141 69 q 131 21 130 37 q 142 -16 131 4 l 142 -16 q 159 -46 151 -33 q 172 -72 166 -60 q 180 -98 177 -85 q 182 -126 182 -111 l 182 -126 q 172 -171 182 -150 q 143 -209 162 -193 q 97 -235 124 -226 q 36 -245 70 -245 l 36 -245 q -27 -235 1 -245 q -74 -208 -55 -225 q -104 -170 -94 -192 q -114 -126 -114 -149 l -114 -126 q -92 -73 -114 -96 q -31 -40 -71 -51 l -31 -40 q -24 -43 -26 -40 q -26 -50 -23 -47 l -26 -50 q -60 -74 -47 -58 q -73 -117 -73 -90 l -73 -117 q -38 -199 -73 -168 q 54 -230 -3 -230 l 54 -230 q 125 -205 102 -230 q 148 -142 148 -181 l 148 -142 q 141 -101 148 -119 q 120 -60 134 -83 l 120 -60 q 104 2 101 -28 q 124 63 106 31 l 124 63 q 129 71 126 67 q 133 79 131 74 l 133 79 q 108 58 122 67 q 83 49 93 49 l 83 49 q 34 113 34 49 l 34 113 q 42 159 34 134 q 65 206 50 184 q 99 241 79 227 q 142 255 118 255 l 142 255 q 196 258 177 255 q 226 270 215 260 z m 146 103 l 146 103 q 156 132 152 117 q 160 162 160 147 l 160 162 q 151 208 160 191 q 120 224 141 224 l 120 224 q 80 200 96 224 q 63 132 63 176 l 63 132 q 73 90 63 103 q 101 77 82 77 l 101 77 q 125 84 112 77 q 146 103 138 91 z"},"`":{"ha":155,"x_min":17,"x_max":136,"o":"m 134 325 l 134 325 q 134 320 136 323 q 126 316 131 317 l 126 316 q 72 337 101 324 q 23 363 43 350 l 23 363 q 23 371 17 365 l 23 371 q 46 383 32 379 q 63 385 60 387 l 63 385 q 97 355 77 371 q 134 325 116 339 z"},"h":{"ha":292,"x_min":23,"x_max":556,"o":"m 26 9 l 26 9 q 127 319 71 181 q 245 554 183 457 q 370 704 306 651 q 494 756 434 756 l 494 756 q 531 748 516 756 q 551 726 545 739 q 554 697 556 713 q 539 666 551 681 l 539 666 q 534 664 537 663 q 531 669 531 665 l 531 669 q 519 707 535 689 q 468 725 503 725 l 468 725 q 372 688 421 725 q 274 575 323 651 q 178 382 225 498 q 86 107 130 266 l 86 107 q 123 166 102 138 q 166 213 144 193 q 211 245 188 233 q 254 256 233 256 l 254 256 q 272 250 266 256 q 278 236 278 244 l 278 236 q 269 207 278 223 l 269 207 q 235 131 248 170 q 221 60 221 92 l 221 60 q 225 37 221 46 q 236 28 228 28 l 236 28 q 258 39 246 28 q 278 62 269 49 l 278 62 q 284 62 281 64 q 286 55 287 59 l 286 55 q 271 37 280 46 q 252 19 262 27 q 230 5 241 10 q 210 0 219 0 l 210 0 q 185 42 185 0 l 185 42 q 197 121 185 78 q 226 196 209 163 l 226 196 q 232 213 232 206 l 232 213 q 221 222 232 222 l 221 222 q 182 208 203 222 q 139 167 161 194 q 97 102 117 140 q 61 15 77 63 l 61 15 q 51 4 59 8 q 34 0 42 0 l 34 0 q 26 9 23 0 z"},"-":{"ha":245,"x_min":32,"x_max":225,"o":"m 59 160 l 59 160 q 93 163 72 161 q 136 167 113 165 q 182 169 159 168 q 221 170 204 170 l 221 170 q 224 165 225 169 q 220 157 223 161 q 210 148 216 152 q 197 143 204 144 l 197 143 q 157 143 179 143 q 114 141 135 142 q 72 140 92 140 q 39 138 52 139 l 39 138 q 39 149 32 140 q 59 160 46 157 z"},"i":{"ha":149,"x_min":34,"x_max":217,"o":"m 52 186 l 52 186 q 47 188 49 184 q 46 194 44 191 l 46 194 q 84 226 60 208 q 132 256 108 244 l 132 256 q 140 247 140 256 l 140 247 q 115 197 127 224 q 93 144 102 170 q 77 93 83 117 q 71 52 71 68 l 71 52 q 85 31 71 31 l 85 31 q 107 41 96 31 q 131 66 117 50 l 131 66 q 136 65 133 68 q 137 58 139 62 l 137 58 q 99 18 119 36 q 60 0 78 0 l 60 0 q 34 33 34 0 l 34 33 q 41 79 34 52 q 57 132 47 105 q 80 184 67 159 q 104 227 92 209 l 104 227 q 77 207 93 219 q 52 186 60 194 z m 142 299 l 142 299 q 137 299 139 296 q 133 306 134 301 q 132 316 132 310 q 135 326 132 322 l 135 326 q 208 403 161 362 l 208 403 q 214 402 211 404 q 215 397 217 399 l 215 397 q 175 352 194 378 q 142 299 156 325 z"},"j":{"ha":136,"x_min":-306,"x_max":207,"o":"m 84 221 l 84 221 q 63 205 73 213 q 43 187 52 197 l 43 187 q 38 189 39 186 q 37 195 36 192 l 37 195 q 75 227 51 209 q 121 255 98 244 l 121 255 q 129 246 131 255 l 129 246 q 52 13 94 107 q -39 -138 9 -81 q -138 -220 -87 -196 q -243 -245 -190 -245 l -243 -245 q -292 -218 -278 -245 q -295 -147 -306 -191 l -295 -147 q -290 -144 -293 -145 q -286 -148 -287 -144 l -286 -148 q -286 -176 -289 -163 q -275 -199 -284 -189 q -250 -216 -266 -210 q -211 -222 -235 -222 l -211 -222 q -132 -202 -171 -222 q -56 -133 -94 -183 q 16 2 -19 -84 q 84 221 51 88 z m 133 298 l 133 298 q 124 305 127 293 q 126 324 120 316 l 126 324 q 158 363 140 344 q 198 401 175 381 l 198 401 q 204 401 201 403 q 205 396 207 398 l 205 396 q 166 351 184 377 q 133 298 147 324 z"},"k":{"ha":259,"x_min":23,"x_max":550,"o":"m 144 131 l 144 131 q 172 50 155 78 q 214 21 189 21 l 214 21 q 235 26 225 21 q 255 45 244 31 l 255 45 q 260 45 258 47 q 261 39 262 42 l 261 39 q 231 11 247 21 q 193 0 215 0 l 193 0 q 142 34 161 0 q 111 133 123 68 l 111 133 q 116 143 110 141 l 116 143 q 152 143 134 139 q 184 154 170 146 q 207 175 198 162 q 215 204 215 188 l 215 204 q 190 229 215 229 l 190 229 q 126 196 156 229 q 81 97 96 162 l 81 97 q 73 60 77 80 q 65 25 68 39 l 65 25 q 61 13 63 17 q 52 6 59 9 l 52 6 q 31 0 40 0 l 31 0 q 26 9 23 0 l 26 9 q 111 314 57 176 q 228 550 164 451 q 360 702 292 648 q 488 756 428 756 l 488 756 q 525 748 510 756 q 545 726 539 739 q 548 697 550 713 q 533 665 545 681 l 533 665 q 524 668 526 660 l 524 668 q 515 707 529 688 q 465 726 500 726 l 465 726 q 372 693 421 726 q 272 591 322 660 q 176 416 222 522 q 92 162 129 309 l 92 162 q 143 231 114 205 q 212 256 172 256 l 212 256 q 240 244 229 256 q 250 217 250 232 l 250 217 q 220 161 250 185 q 144 131 189 137 z"},"l":{"ha":134,"x_min":30,"x_max":483,"o":"m 442 743 l 442 743 q 476 719 468 743 q 469 668 483 695 l 469 668 q 464 668 467 666 q 460 673 461 670 l 460 673 q 452 693 462 685 q 419 701 441 701 l 419 701 q 334 665 376 701 q 253 572 292 629 q 181 443 214 514 q 123 302 147 372 q 84 169 98 231 q 70 67 70 106 l 70 67 q 87 37 70 37 l 87 37 q 111 47 99 37 q 137 77 122 57 l 137 77 q 143 77 140 79 q 144 70 145 74 l 144 70 q 100 20 124 39 q 59 0 76 0 l 59 0 q 38 11 46 0 q 30 39 30 21 l 30 39 q 40 112 30 67 q 68 211 50 156 q 112 327 86 266 q 167 446 137 387 q 231 559 197 505 q 300 654 264 613 q 371 719 335 695 q 442 743 407 743 z"},"m":{"ha":413,"x_min":24,"x_max":411,"o":"m 356 210 l 356 210 q 341 231 356 231 l 341 231 q 308 216 326 231 q 271 173 290 201 q 232 105 251 145 q 194 13 212 64 l 194 13 q 184 4 192 7 q 167 0 175 0 l 167 0 q 158 9 155 0 l 158 9 q 175 54 164 27 q 195 110 185 81 q 211 163 204 138 q 218 202 218 188 l 218 202 q 201 230 218 230 l 201 230 q 135 174 175 230 q 59 13 95 118 l 59 13 q 50 4 57 7 q 35 0 43 0 l 35 0 q 27 2 30 0 q 26 9 24 4 l 26 9 q 43 58 34 31 q 61 111 52 84 q 78 164 70 138 q 90 213 85 190 l 90 213 q 85 231 95 231 l 85 231 q 66 220 77 231 q 44 194 55 209 l 44 194 q 38 195 41 192 q 37 200 35 197 l 37 200 q 71 239 52 221 q 108 256 89 256 l 108 256 q 125 246 121 256 q 125 222 128 236 l 125 222 q 116 182 120 200 q 104 144 111 163 l 104 144 q 162 225 130 194 q 224 256 193 256 l 224 256 q 244 247 236 256 q 251 222 251 238 l 251 222 q 247 180 251 201 q 235 137 243 159 l 235 137 q 300 225 265 194 q 368 256 334 256 l 368 256 q 386 248 379 256 q 393 227 393 240 l 393 227 q 386 188 393 209 q 369 143 378 166 q 353 98 360 120 q 345 55 345 75 l 345 55 q 360 30 345 30 l 360 30 q 404 63 376 30 l 404 63 q 409 62 406 65 q 409 55 411 59 l 409 55 q 394 38 403 47 q 376 20 385 28 q 355 6 366 11 q 334 0 344 0 l 334 0 q 311 38 311 0 l 311 38 q 318 87 311 62 q 334 134 325 111 q 349 176 342 156 q 356 210 356 196 z"},"n":{"ha":291,"x_min":19,"x_max":291,"o":"m 282 64 l 282 64 q 288 64 285 66 q 290 58 291 62 l 290 58 q 253 18 273 35 q 214 0 232 0 l 214 0 q 183 40 183 0 l 183 40 q 195 116 183 74 q 228 199 207 157 l 228 199 q 232 213 232 206 l 232 213 q 222 224 232 224 l 222 224 q 141 173 185 224 q 58 13 96 122 l 58 13 q 47 4 56 7 q 30 0 38 0 l 30 0 q 22 9 19 0 l 22 9 q 58 106 39 52 q 90 213 76 160 l 90 213 q 83 232 94 232 l 83 232 q 63 222 73 232 q 42 196 53 212 l 42 196 q 38 197 40 194 q 36 203 35 200 l 36 203 q 66 238 47 220 q 107 256 85 256 l 107 256 q 124 222 132 256 l 124 222 q 113 176 120 200 q 98 127 106 151 l 98 127 q 131 178 112 154 q 171 219 150 202 q 212 246 191 236 q 250 256 232 256 l 250 256 q 269 250 262 256 q 275 236 275 244 l 275 236 q 269 210 275 223 l 269 210 q 234 131 248 172 q 219 54 219 89 l 219 54 q 235 29 219 29 l 235 29 q 282 64 256 29 z"},"o":{"ha":225,"x_min":30,"x_max":215,"o":"m 162 256 l 162 256 q 202 238 189 256 q 215 191 215 220 l 215 191 q 202 123 215 157 q 169 62 189 89 q 126 17 149 34 q 82 0 102 0 l 82 0 q 44 19 58 0 q 30 73 30 38 l 30 73 q 41 133 30 101 q 71 193 52 165 q 113 238 89 220 q 162 256 136 256 z m 102 31 l 102 31 q 132 42 117 31 q 157 70 146 52 q 175 110 168 87 q 181 158 181 133 l 181 158 q 171 206 181 188 q 138 223 161 223 l 138 223 q 109 213 123 223 q 85 185 95 202 q 68 144 74 167 q 62 94 62 120 l 62 94 q 102 31 62 31 z"},"p":{"ha":261,"x_min":-34,"x_max":251,"o":"m 207 255 l 207 255 q 239 237 227 255 q 251 191 251 219 l 251 191 q 238 118 251 152 q 201 57 224 83 q 145 15 177 30 q 75 -1 113 -1 l 75 -1 q 47 6 58 -1 l 47 6 q 16 -100 30 -44 q 2 -206 2 -157 l 2 -206 q 25 -225 2 -228 l 25 -225 q 55 -213 40 -222 l 55 -213 q 59 -216 58 -212 q 57 -224 59 -221 l 57 -224 q 24 -238 45 -231 q -16 -245 3 -245 l -16 -245 q -29 -241 -24 -245 q -34 -229 -34 -238 l -34 -229 q -18 -111 -34 -178 q 24 28 -2 -44 l 24 28 q 21 35 22 31 q 18 42 19 38 l 18 42 q 33 51 17 46 l 33 51 q 61 123 46 87 q 91 193 76 159 l 91 193 q 109 245 110 235 q 96 248 107 254 l 96 248 q 80 237 89 244 q 63 221 71 230 l 63 221 q 59 223 61 219 q 57 228 56 226 l 57 228 q 73 244 63 235 q 94 262 83 253 q 115 276 104 270 q 133 282 125 282 l 133 282 q 144 274 141 282 q 140 251 146 265 l 140 251 q 125 212 134 234 q 104 167 115 189 l 104 167 q 159 232 132 209 q 207 255 186 255 z m 100 19 l 100 19 q 147 30 125 19 q 184 61 168 41 q 208 107 199 80 q 216 165 216 133 l 216 165 q 208 205 216 189 q 181 220 199 220 l 181 220 q 126 179 158 220 q 67 63 94 138 l 67 63 q 64 53 65 58 q 60 43 62 48 l 60 43 q 75 26 65 32 q 100 19 84 19 z"},"(":{"ha":250,"x_min":93,"x_max":332,"o":"m 315 637 l 315 637 q 327 639 322 641 q 327 628 332 637 l 327 628 q 284 579 307 609 q 242 517 260 548 l 242 517 q 195 416 216 473 q 158 297 173 359 q 135 172 143 235 q 126 52 126 109 l 126 52 q 127 17 126 36 q 131 -22 128 -3 q 137 -60 133 -42 q 146 -93 141 -79 l 146 -93 q 141 -103 147 -101 q 130 -100 135 -106 l 130 -100 q 107 -24 116 -68 q 96 71 98 20 q 98 177 93 121 q 116 289 102 233 l 116 289 q 196 492 143 403 q 315 637 248 581 z"},")":{"ha":276,"x_min":27,"x_max":266,"o":"m 43 -102 l 43 -102 q 32 -104 37 -106 q 32 -93 27 -102 l 32 -93 q 75 -43 52 -73 q 117 19 98 -13 l 117 19 q 165 120 143 63 q 201 238 186 176 q 225 363 216 300 q 233 483 233 426 l 233 483 q 232 519 233 499 q 229 558 231 538 q 222 596 226 577 q 213 628 218 614 l 213 628 q 218 639 212 637 q 229 635 224 641 l 229 635 q 252 559 243 603 q 264 465 261 515 q 261 358 266 414 q 243 246 256 302 l 243 246 q 164 43 216 132 q 43 -102 111 -46 z"},".":{"ha":112,"x_min":30,"x_max":87,"o":"m 42 0 l 42 0 q 30 22 30 0 l 30 22 q 34 35 30 28 q 45 49 38 42 q 60 61 52 56 q 77 65 68 65 l 77 65 q 87 50 87 65 l 87 50 q 83 34 87 42 q 72 18 78 25 q 57 5 65 10 q 42 0 49 0 z"},"q":{"ha":269,"x_min":25,"x_max":289,"o":"m 175 -217 l 175 -217 q 178 -221 178 -216 q 175 -228 177 -226 l 175 -228 q 136 -239 157 -235 q 102 -244 114 -244 l 102 -244 q 84 -206 80 -244 l 84 -206 q 98 -139 88 -179 q 121 -55 107 -99 q 150 30 134 -12 q 182 101 165 71 l 182 101 q 154 67 169 84 q 122 36 138 50 q 91 13 106 22 q 64 0 76 3 l 64 0 q 36 15 46 0 q 25 61 25 29 l 25 61 q 40 133 25 98 q 81 195 55 168 q 140 239 106 222 q 213 255 174 255 l 213 255 q 260 237 240 255 l 260 237 q 280 247 271 246 q 288 243 289 248 l 288 243 q 228 140 255 196 q 180 26 201 84 q 146 -87 159 -32 q 127 -189 132 -143 l 127 -189 q 129 -214 125 -206 q 145 -223 133 -223 l 145 -223 q 175 -217 158 -223 z m 86 34 l 86 34 q 112 46 96 34 q 145 75 128 58 q 177 110 162 92 q 198 141 191 128 l 198 141 q 219 180 211 166 q 236 210 226 193 l 236 210 q 225 230 235 221 q 198 239 215 239 l 198 239 q 145 226 169 239 q 102 189 120 212 q 73 135 83 166 q 62 69 62 104 l 62 69 q 86 34 62 34 z"},"?":{"ha":285,"x_min":55,"x_max":385,"o":"m 68 0 l 68 0 q 55 21 55 0 l 55 21 q 60 35 55 27 q 71 49 64 42 q 86 61 77 56 q 103 65 94 65 l 103 65 q 111 61 108 65 q 113 50 113 56 l 113 50 q 109 34 113 42 q 97 18 104 25 q 83 5 90 10 q 68 0 75 0 z m 294 519 l 294 519 q 361 492 337 519 q 385 429 385 465 l 385 429 q 371 359 385 387 q 334 310 356 330 q 284 275 311 289 q 232 247 257 260 q 185 220 206 234 q 154 185 164 205 l 154 185 q 150 156 146 170 q 175 140 154 142 l 175 140 q 179 136 182 140 q 169 126 176 131 q 151 118 161 121 q 134 116 141 114 l 134 116 q 119 126 125 118 q 112 146 113 134 q 116 171 111 157 q 134 197 121 184 l 134 197 q 198 246 161 226 q 268 287 234 266 q 324 335 301 308 q 347 403 347 361 l 347 403 q 326 462 347 439 q 267 484 305 484 l 267 484 q 207 464 230 484 q 176 414 184 443 l 176 414 q 166 414 172 409 q 161 424 160 419 l 161 424 q 182 460 168 443 q 213 490 195 477 q 251 511 230 503 q 294 519 272 519 z"},"r":{"ha":195,"x_min":28,"x_max":235,"o":"m 121 228 l 121 228 q 118 193 121 213 q 110 153 115 173 l 110 153 q 154 229 130 201 q 206 256 178 256 l 206 256 q 226 250 217 256 q 235 233 235 244 l 235 233 q 229 213 235 225 q 217 194 223 200 l 217 194 q 211 197 211 190 l 211 197 q 188 214 211 214 l 188 214 q 125 162 153 214 q 72 16 97 109 l 72 16 q 59 3 70 6 q 39 0 47 0 l 39 0 q 34 11 28 0 l 34 11 q 51 57 43 32 q 67 106 59 81 q 79 155 74 131 q 87 199 84 179 l 87 199 q 77 229 91 229 l 77 229 q 59 220 69 229 q 39 199 48 211 l 39 199 q 32 200 35 197 q 31 206 29 202 l 31 206 q 65 241 46 225 q 99 256 83 256 l 99 256 q 121 228 121 256 z"},"s":{"ha":188,"x_min":-5,"x_max":186,"o":"m 139 256 l 139 256 q 173 250 159 256 q 186 235 186 243 l 186 235 q 182 210 186 224 q 172 187 177 196 l 172 187 q 167 187 170 185 q 164 191 163 188 l 164 191 q 168 207 167 198 q 167 223 169 216 l 167 223 q 139 243 162 243 l 139 243 q 112 233 122 243 q 101 203 101 223 l 101 203 q 110 173 101 187 q 129 144 118 158 q 148 113 139 129 q 156 76 156 96 l 156 76 q 134 22 156 44 q 66 0 111 0 l 66 0 q 15 11 35 0 q -5 34 -5 22 l -5 34 q 6 61 -5 43 q 31 90 17 79 l 31 90 q 37 89 34 92 q 37 83 39 86 l 37 83 q 25 65 29 75 q 23 46 21 54 l 23 46 q 39 21 26 29 q 68 12 51 12 l 68 12 q 109 26 94 12 q 123 62 123 40 l 123 62 q 114 98 123 81 q 95 130 105 114 q 76 161 84 145 q 67 194 67 176 l 67 194 q 87 238 67 220 q 139 256 106 256 z"},";":{"ha":156,"x_min":-7,"x_max":139,"o":"m 95 191 l 95 191 q 82 213 82 191 l 82 213 q 86 226 82 219 q 97 240 90 233 q 112 252 104 247 q 129 256 120 256 l 129 256 q 139 242 139 256 l 139 242 q 135 226 139 234 q 124 209 130 217 q 110 196 117 201 q 95 191 102 191 z m 69 68 l 69 68 q 78 56 74 66 q 81 33 81 45 l 81 33 q 58 -31 81 2 q -1 -86 34 -65 l -1 -86 q -6 -82 -5 -86 q -4 -75 -7 -79 l -4 -75 q 32 -40 18 -61 q 46 4 46 -19 l 46 4 q 36 31 46 25 l 36 31 q 37 40 33 34 q 46 52 40 46 q 59 63 52 58 q 69 68 65 68 z"},"/":{"ha":210,"x_min":-26,"x_max":381,"o":"m 379 625 l 379 625 q 325 535 356 588 q 257 420 293 481 q 184 293 221 358 q 112 166 146 227 q 48 52 77 105 q -1 -37 18 -1 l -1 -37 q -17 -43 -8 -45 q -24 -33 -26 -42 l -24 -33 q 28 58 -2 6 q 92 169 58 110 q 161 291 125 228 q 233 415 197 354 q 301 531 268 476 q 359 630 333 586 l 359 630 q 373 634 365 635 q 379 625 381 633 z"},"t":{"ha":171,"x_min":39,"x_max":211,"o":"m 206 252 l 206 252 q 210 246 211 250 q 201 241 209 242 l 201 241 q 166 239 185 240 q 126 236 146 238 l 126 236 q 93 140 106 186 q 80 64 80 94 l 80 64 q 106 30 80 30 l 106 30 q 163 76 132 30 l 163 76 q 169 76 166 78 q 171 68 172 73 l 171 68 q 151 42 162 54 q 127 20 139 29 q 104 6 115 11 q 86 0 93 0 l 86 0 q 54 14 64 0 q 43 46 43 27 l 43 46 q 57 129 43 79 q 92 232 71 179 l 92 232 q 67 228 79 230 q 44 224 55 226 l 44 224 q 42 229 39 225 q 51 237 44 233 q 66 245 57 241 q 83 248 75 248 l 83 248 q 92 249 88 249 q 99 249 95 249 l 99 249 q 127 309 113 280 q 155 361 141 337 l 155 361 q 169 372 161 367 q 183 378 176 376 q 194 379 190 379 q 197 375 198 378 l 197 375 q 164 317 180 349 q 132 251 147 285 l 132 251 q 168 252 150 251 q 206 252 186 252 z"},"u":{"ha":299,"x_min":32,"x_max":292,"o":"m 65 0 l 65 0 q 42 13 52 0 q 32 45 32 25 l 32 45 q 37 83 32 61 q 49 128 41 104 q 67 176 56 152 q 92 221 78 200 l 92 221 q 69 204 81 213 q 49 186 57 194 l 49 186 q 44 188 46 184 q 43 194 42 191 l 43 194 q 61 210 50 201 q 85 228 72 219 q 111 246 97 237 q 136 260 124 254 l 136 260 q 143 258 140 261 q 144 251 145 255 l 144 251 q 93 161 112 210 q 73 66 73 111 l 73 66 q 90 37 73 37 l 90 37 q 123 55 103 37 q 163 101 142 72 q 206 165 184 129 q 245 238 227 201 l 245 238 q 257 251 248 245 q 275 256 265 256 l 275 256 q 284 248 288 256 l 284 248 q 259 200 270 222 q 241 155 248 177 q 231 110 234 133 q 227 60 227 87 l 227 60 q 245 28 227 28 l 245 28 q 263 37 253 28 q 283 59 273 45 l 283 59 q 289 59 286 61 q 290 52 292 57 l 290 52 q 258 16 276 31 q 222 0 239 0 l 222 0 q 200 13 209 0 q 191 48 191 26 l 191 48 q 196 100 191 72 q 210 155 200 127 l 210 155 q 170 90 191 118 q 130 41 149 61 q 93 11 110 21 q 65 0 76 0 z"},"_":{"ha":356,"x_min":-16,"x_max":316,"o":"m 28 -29 l 28 -29 q 82 -27 45 -28 q 161 -25 118 -26 q 244 -25 203 -25 q 311 -25 285 -25 l 311 -25 q 315 -33 316 -27 q 306 -40 314 -39 l 306 -40 q 242 -40 280 -40 q 160 -42 203 -41 q 71 -47 116 -44 q -11 -54 26 -50 l -11 -54 q -13 -49 -16 -53 q -4 -41 -11 -45 q 11 -33 2 -37 q 28 -29 20 -30 z"},"v":{"ha":271,"x_min":29,"x_max":266,"o":"m 102 14 l 102 14 q 74 4 88 8 q 49 0 60 0 l 49 0 q 43 13 37 0 l 43 13 q 72 105 60 55 q 88 193 84 154 l 88 193 q 77 228 91 228 l 77 228 q 40 205 63 228 l 40 205 q 32 206 35 203 q 32 213 29 209 l 32 213 q 73 246 55 236 q 105 256 90 256 l 105 256 q 122 247 117 256 q 126 224 126 238 l 126 224 q 122 179 126 205 q 112 125 118 153 q 97 69 105 96 q 82 19 89 41 l 82 19 q 138 45 110 26 q 188 89 166 64 q 224 144 210 114 q 237 203 237 173 l 237 203 q 220 229 237 229 l 220 229 q 195 213 206 229 l 195 213 q 190 214 192 211 q 189 220 188 217 l 189 220 q 212 245 197 233 q 240 256 226 256 l 240 256 q 259 246 251 256 q 266 216 266 236 l 266 216 q 254 158 266 187 q 219 102 241 129 q 167 52 197 75 q 102 14 137 29 z"},"w":{"ha":369,"x_min":20,"x_max":356,"o":"m 323 255 l 323 255 q 347 239 337 255 q 356 190 356 222 l 356 190 q 342 118 356 152 q 305 57 327 83 q 257 16 283 31 q 209 0 231 0 l 209 0 q 181 14 191 0 q 170 56 170 28 l 170 56 q 171 82 170 68 q 174 111 172 96 q 179 138 176 125 q 184 161 181 151 l 184 161 q 141 99 163 135 q 97 26 119 63 l 97 26 q 84 5 89 10 q 70 0 78 0 l 70 0 q 64 11 62 0 l 64 11 q 76 71 71 35 q 80 140 80 106 q 76 198 80 173 q 59 228 71 223 l 59 228 q 44 225 53 230 q 29 209 34 220 l 29 209 q 24 210 27 207 q 21 216 20 212 l 21 216 q 29 228 23 221 q 43 240 35 234 q 60 251 51 246 q 77 255 69 255 l 77 255 q 105 231 96 255 q 114 148 114 206 l 114 148 q 112 101 114 122 q 106 64 109 80 l 106 64 q 144 124 126 98 q 178 170 162 149 l 178 170 q 189 189 184 178 q 198 218 193 199 l 198 218 q 205 227 199 222 q 217 234 211 231 q 228 238 223 237 q 232 236 232 239 l 232 236 q 209 160 217 203 q 200 79 200 116 l 200 79 q 234 31 200 31 l 234 31 q 269 42 251 31 q 302 72 287 53 q 326 115 316 90 q 335 166 335 139 l 335 166 q 320 216 335 205 q 287 213 304 227 l 287 213 q 281 220 279 211 l 281 220 q 289 231 284 225 q 301 243 294 237 q 313 252 307 248 q 323 255 319 255 z"},"x":{"ha":263,"x_min":-7,"x_max":274,"o":"m 250 64 l 250 64 q 256 64 253 66 q 258 58 259 62 l 258 58 q 243 37 252 47 q 224 18 234 26 q 204 5 214 10 q 186 -1 194 -1 l 186 -1 q 148 24 168 -1 q 114 92 128 49 l 114 92 q 62 23 88 47 q 9 -1 35 -1 l 9 -1 q -7 20 -7 -1 l -7 20 q -3 47 -7 32 q 10 79 1 62 l 10 79 q 15 79 12 81 q 17 73 17 77 l 17 73 q 14 44 9 55 q 30 32 19 32 l 30 32 q 67 50 47 32 q 109 108 86 67 l 109 108 q 100 155 102 133 q 97 193 98 177 q 94 217 95 208 q 87 226 92 226 l 87 226 q 72 215 80 226 q 59 190 64 203 l 59 190 q 54 189 57 188 q 51 193 50 190 l 51 193 q 60 213 53 202 q 75 233 66 223 q 93 249 83 242 q 110 255 102 255 l 110 255 q 121 246 117 255 q 126 223 124 237 q 128 190 127 208 q 132 151 129 171 l 132 151 q 187 226 156 196 q 245 255 217 255 l 245 255 q 267 248 259 255 q 274 229 274 240 l 274 229 q 269 207 274 220 q 257 182 263 193 l 257 182 q 252 182 254 180 q 249 186 249 183 l 249 186 q 255 215 259 203 q 235 227 251 227 l 235 227 q 186 204 209 227 q 136 133 162 181 l 136 133 q 167 56 148 85 q 204 27 185 27 l 204 27 q 229 38 217 27 q 250 64 240 49 z"},"z":{"ha":238,"x_min":-11,"x_max":251,"o":"m 48 49 l 48 49 q 96 36 71 41 q 145 30 120 30 l 145 30 q 188 45 171 30 q 215 88 204 59 l 215 88 q 222 88 218 90 q 224 82 226 86 l 224 82 q 188 22 210 44 q 134 -1 165 -1 l 134 -1 q 92 4 113 -1 q 48 16 71 8 l 48 16 q 26 17 36 21 q 0 -1 15 13 l 0 -1 q -8 4 -5 -1 q -8 14 -11 9 l -8 14 q 41 62 14 36 q 94 115 67 88 q 147 167 121 142 q 193 213 172 192 l 193 213 q 144 221 171 218 q 98 224 117 224 l 98 224 q 58 192 69 224 l 58 192 q 52 191 56 189 q 48 196 48 193 l 48 196 q 73 237 56 218 q 116 255 90 255 l 116 255 q 160 251 139 255 q 195 242 181 246 l 195 242 q 214 243 206 240 q 230 252 222 245 l 230 252 q 239 255 233 255 l 239 255 q 249 247 251 255 l 249 247 q 144 145 195 195 q 48 49 92 94 z"},"A":{"ha":996,"x_min":45,"x_max":1006,"o":"m 1004 585 l 1004 585 q 1006 580 1006 583 q 1001 570 1006 576 l 1001 570 q 942 488 968 534 q 898 386 916 441 q 869 270 879 331 q 859 145 859 209 l 859 145 q 871 71 859 97 q 912 44 883 44 l 912 44 q 988 100 951 44 l 988 100 q 994 100 991 102 q 995 94 997 98 l 995 94 q 972 61 985 77 q 943 31 958 44 q 914 9 928 17 q 887 0 899 0 l 887 0 q 837 34 854 0 q 819 119 819 67 l 819 119 q 837 282 819 199 l 837 282 q 745 281 790 282 q 655 278 699 280 l 655 278 q 592 212 622 243 q 532 155 561 181 l 532 155 q 368 41 452 82 q 182 0 283 0 l 182 0 q 100 25 131 0 q 57 86 68 49 q 55 168 45 123 q 97 251 64 212 l 97 251 q 104 251 100 253 q 107 241 108 248 l 107 241 q 79 181 83 215 q 89 116 74 147 q 140 64 104 85 q 234 43 176 43 l 234 43 q 388 79 310 43 q 534 180 465 115 l 534 180 q 580 225 556 200 q 629 277 603 249 l 629 277 q 505 265 560 272 l 505 265 q 503 270 500 266 q 513 279 506 274 q 528 287 519 283 q 544 291 536 290 l 544 291 q 584 293 556 292 q 646 294 611 293 l 646 294 q 774 423 703 354 q 937 565 844 492 l 937 565 q 799 602 870 587 q 661 616 727 616 l 661 616 q 537 573 586 616 q 475 440 487 529 l 475 440 q 470 436 473 435 q 465 442 466 437 l 465 442 q 538 592 477 540 q 696 644 599 644 l 696 644 q 779 639 737 644 q 861 625 821 633 q 938 606 901 616 q 1004 585 974 595 z m 840 295 l 840 295 q 887 438 857 368 q 959 564 917 507 l 959 564 q 801 425 871 493 q 671 294 731 356 l 671 294 q 766 295 719 295 q 840 295 813 295 z"},"B":{"ha":638,"x_min":28,"x_max":654,"o":"m 519 364 l 519 364 q 602 292 576 338 q 628 197 628 246 l 628 197 q 564 53 628 106 q 371 0 499 0 l 371 0 q 185 34 268 0 q 31 127 101 68 l 31 127 q 33 136 28 131 q 46 144 38 140 q 62 149 53 147 q 77 147 71 150 l 77 147 q 116 122 96 127 q 162 121 135 116 l 162 121 q 209 141 188 126 q 248 187 229 156 q 285 268 266 218 q 324 394 303 318 l 324 394 q 375 524 345 468 q 446 618 404 580 l 446 618 q 428 620 437 620 q 408 620 419 620 l 408 620 q 343 611 375 620 q 281 583 310 601 q 229 539 252 565 q 191 480 206 513 l 191 480 q 187 480 189 478 q 185 485 184 481 l 185 485 q 222 545 197 516 q 280 596 246 574 q 357 631 314 618 q 448 644 399 644 l 448 644 q 464 644 456 644 q 479 643 471 644 l 479 643 q 565 680 515 668 l 565 680 q 570 677 570 680 q 565 672 570 674 l 565 672 q 531 660 548 667 q 499 641 514 652 l 499 641 q 569 622 539 635 q 617 589 598 608 q 645 547 636 569 q 654 500 654 524 l 654 500 q 643 445 654 470 q 612 402 631 420 q 569 374 593 384 q 519 364 544 364 z m 394 15 l 394 15 q 475 28 439 15 q 535 62 510 40 q 572 112 559 83 q 584 175 584 141 l 584 175 q 433 360 584 320 l 433 360 q 434 368 430 363 q 445 377 438 373 q 461 383 452 381 q 476 384 470 385 l 476 384 q 493 379 485 380 q 512 377 500 377 l 512 377 q 548 385 530 377 q 579 406 565 392 q 601 439 592 420 q 609 480 609 457 l 609 480 q 575 566 609 528 q 468 616 540 603 l 468 616 q 409 532 435 582 q 365 412 383 482 l 365 412 q 312 258 339 317 q 255 164 284 198 q 195 117 226 130 q 132 103 164 104 l 132 103 q 251 40 183 65 q 394 15 319 15 z"},"D":{"ha":799,"x_min":30,"x_max":794,"o":"m 583 591 l 583 591 q 671 522 632 562 q 738 436 710 481 q 780 345 765 391 q 794 256 794 298 l 794 256 q 776 154 794 200 q 723 73 758 107 q 637 19 688 38 q 521 0 586 0 l 521 0 q 450 5 483 0 q 388 18 417 10 q 331 34 358 25 q 277 52 304 43 l 277 52 q 192 13 238 25 q 88 0 145 0 l 88 0 q 43 8 56 0 q 30 28 30 15 l 30 28 q 39 56 30 41 q 64 82 48 70 q 103 102 80 94 q 155 109 126 109 l 155 109 q 226 102 193 109 q 290 85 259 95 l 290 85 q 359 193 327 124 q 427 373 391 262 l 427 373 q 473 487 448 437 q 530 572 498 537 l 530 572 q 447 604 491 592 q 355 616 403 616 l 355 616 q 284 604 316 616 q 226 569 251 591 q 185 515 201 546 q 163 446 169 484 l 163 446 q 155 450 157 440 l 155 450 q 177 528 159 492 q 226 589 195 563 q 299 630 256 615 q 394 644 341 644 l 394 644 q 482 633 440 644 q 562 602 524 622 l 562 602 q 690 661 616 646 l 690 661 q 694 658 693 661 q 691 652 694 654 l 691 652 q 633 629 659 644 q 583 591 606 613 z m 122 18 l 122 18 q 198 27 164 18 q 260 57 231 35 l 260 57 q 192 74 227 67 q 115 81 157 81 l 115 81 q 75 72 88 81 q 60 50 62 63 l 60 50 q 71 27 58 36 q 122 18 84 18 z m 566 27 l 566 27 q 709 81 661 27 q 756 224 756 134 l 756 224 q 742 319 756 271 q 702 411 728 366 q 638 493 675 455 q 555 559 601 531 l 555 559 q 509 486 529 527 q 472 393 489 444 l 472 393 q 397 202 435 278 q 309 78 358 125 l 309 78 q 361 60 334 69 q 419 44 388 51 q 486 32 449 36 q 566 27 522 27 z"},"y":{"ha":280,"x_min":-177,"x_max":286,"o":"m 243 232 l 243 232 q 248 239 244 235 q 258 246 252 242 q 269 253 263 250 q 277 255 274 255 l 277 255 q 284 248 286 255 l 284 248 q 241 128 262 186 q 196 6 220 69 l 196 6 q 139 -111 169 -64 q 75 -188 108 -159 q 5 -231 41 -218 q -69 -244 -31 -244 l -69 -244 q -149 -217 -122 -244 q -177 -152 -177 -191 l -177 -152 q -167 -114 -177 -134 q -138 -79 -158 -94 l -138 -79 q -132 -81 -135 -77 q -132 -87 -130 -85 l -132 -87 q -148 -130 -148 -106 l -148 -130 q -124 -198 -148 -172 q -51 -224 -100 -224 l -51 -224 q 14 -213 -16 -224 q 70 -174 43 -202 q 121 -99 96 -146 q 171 19 145 -52 l 171 19 q 193 80 182 52 q 214 138 203 108 l 214 138 q 135 40 176 78 q 61 -1 93 2 l 61 -1 q 42 11 48 -1 q 36 44 36 23 l 36 44 q 40 84 36 62 q 52 128 44 105 q 71 175 59 151 q 96 220 82 198 l 96 220 q 73 203 85 212 q 53 185 61 193 l 53 185 q 48 187 50 183 q 47 193 45 190 l 47 193 q 85 225 61 207 q 132 255 109 243 l 132 255 q 140 246 142 255 l 140 246 q 113 202 125 226 q 91 153 100 177 q 77 104 82 128 q 72 61 72 80 l 72 61 q 91 33 72 33 l 91 33 q 130 55 107 33 q 175 107 152 76 q 216 172 197 137 q 243 232 234 206 z"},"%":{"ha":388,"x_min":20,"x_max":368,"o":"m 115 285 l 115 285 q 69 261 88 285 q 49 206 49 236 l 49 206 q 58 166 49 180 q 85 151 66 151 l 85 151 q 132 176 113 151 q 151 231 151 200 l 151 231 q 143 271 151 257 q 115 285 134 285 z m 67 123 l 67 123 q 33 138 45 123 q 20 177 20 152 l 20 177 q 30 225 20 201 q 55 269 39 249 q 91 301 70 288 q 133 313 111 313 l 133 313 q 168 299 155 313 q 180 260 180 285 l 180 260 q 171 212 180 236 q 146 168 161 187 q 110 136 130 148 q 67 123 89 123 z m 303 162 l 303 162 q 257 138 276 162 q 238 82 238 113 l 238 82 q 246 42 238 56 q 274 28 254 28 l 274 28 q 320 53 301 28 q 339 108 339 77 l 339 108 q 331 148 339 134 q 303 162 323 162 z m 256 0 l 256 0 q 222 15 234 0 q 209 54 209 29 l 209 54 q 219 102 209 78 q 244 146 228 126 q 279 178 259 165 q 321 190 299 190 l 321 190 q 356 176 344 190 q 368 137 368 162 l 368 137 q 359 89 368 113 q 334 45 349 64 q 298 13 318 25 q 256 0 278 0 z m 364 367 l 364 367 q 202 151 283 262 q 52 -64 121 39 l 52 -64 q 37 -69 44 -72 q 32 -59 30 -67 l 32 -59 q 108 48 71 -4 q 182 152 144 100 q 259 259 219 204 q 344 374 298 313 l 344 374 q 359 377 351 379 q 364 367 366 375 z"},"#":{"ha":289,"x_min":13,"x_max":308,"o":"m 301 237 l 301 237 q 301 226 308 235 q 284 214 293 217 l 284 214 q 258 215 271 215 q 230 215 244 215 l 230 215 q 210 178 219 196 q 192 140 200 159 l 192 140 q 223 140 208 140 q 251 138 237 139 l 251 138 q 254 134 254 137 q 250 127 253 131 q 243 120 247 123 q 234 115 238 116 l 234 115 q 208 116 221 116 q 181 116 195 116 l 181 116 q 159 63 169 89 q 138 11 148 37 l 138 11 q 128 0 134 0 l 128 0 q 124 7 122 0 l 124 7 q 141 56 131 28 q 164 116 151 84 l 164 116 q 126 116 144 116 q 89 114 107 116 l 89 114 q 53 11 67 60 l 53 11 q 43 0 49 0 l 43 0 q 39 7 39 0 l 39 7 q 53 55 44 27 q 73 113 62 82 l 73 113 q 43 110 57 111 q 17 106 29 108 l 17 106 q 14 111 13 107 q 20 120 15 115 q 30 129 24 125 q 40 134 35 133 l 40 134 q 60 136 50 135 q 81 137 70 136 l 81 137 q 97 175 89 156 q 112 213 104 194 l 112 213 q 81 210 95 211 q 55 206 67 208 l 55 206 q 53 210 51 206 q 58 219 54 214 q 68 228 62 224 q 78 233 73 232 l 78 233 q 100 236 89 235 q 123 237 111 236 l 123 237 q 136 264 130 251 q 149 287 142 276 l 149 287 q 160 302 153 294 q 174 316 167 310 q 185 322 180 321 q 188 313 189 322 l 188 313 q 166 275 176 294 q 145 238 155 256 l 145 238 q 183 239 164 238 q 220 239 202 239 l 220 239 q 234 264 227 252 q 247 285 240 275 l 247 285 q 259 301 251 292 q 275 316 267 310 q 287 323 282 322 q 290 315 291 324 l 290 315 q 266 278 277 296 q 243 239 254 259 l 243 239 q 274 239 259 239 q 301 237 288 238 z m 173 140 l 173 140 q 208 216 189 177 l 208 216 q 170 216 189 216 q 133 214 151 215 l 133 214 q 115 176 123 194 q 98 138 106 157 l 98 138 q 136 140 117 139 q 173 140 155 140 z"},"$":{"ha":269,"x_min":10,"x_max":259,"o":"m 222 309 l 222 309 q 249 297 239 304 q 259 283 259 290 l 259 283 q 254 252 259 269 q 242 224 249 235 l 242 224 q 235 224 239 222 q 232 230 231 225 l 232 230 q 237 249 236 238 q 236 268 238 260 l 236 268 q 214 292 231 284 l 214 292 q 189 236 201 263 q 165 181 177 208 l 165 181 q 198 144 182 163 q 213 93 213 124 l 213 93 q 182 27 213 54 q 96 -1 150 -1 l 96 -1 l 89 -1 q 78 -31 84 -16 q 65 -63 72 -47 l 65 -63 q 54 -72 60 -72 q 48 -65 47 -73 l 48 -65 q 62 -31 55 -48 q 74 0 68 -15 l 74 0 q 28 16 45 4 q 10 41 10 28 l 10 41 q 14 56 10 47 q 23 74 17 64 q 37 94 29 84 q 53 109 45 103 l 53 109 q 60 108 57 111 q 61 100 63 105 l 61 100 q 47 79 52 92 q 43 55 41 66 l 43 55 q 81 16 49 24 l 81 16 q 111 88 96 54 q 140 157 125 122 l 140 157 q 113 191 125 174 q 100 231 100 207 l 100 231 q 106 261 100 246 q 124 287 112 275 q 153 306 136 299 q 192 313 170 313 l 192 313 q 200 313 196 313 q 206 312 203 312 l 206 312 q 221 345 214 328 q 236 379 228 361 l 236 379 q 248 385 241 386 q 252 375 254 383 l 252 375 q 222 309 237 340 z m 182 76 l 182 76 q 173 116 182 99 q 150 146 163 132 l 150 146 q 123 81 136 113 q 95 14 109 48 l 95 14 l 98 14 q 161 32 140 14 q 182 76 182 50 z m 155 192 l 155 192 q 177 243 166 217 q 200 297 187 268 l 200 297 l 192 297 q 147 283 162 297 q 131 247 131 269 l 131 247 q 138 217 131 230 q 155 192 145 204 z"},"*":{"ha":188,"x_min":42,"x_max":208,"o":"m 199 335 l 199 335 q 175 331 188 333 q 150 326 162 328 l 150 326 q 122 321 136 323 l 122 321 q 139 300 130 311 l 139 300 q 155 282 147 291 q 169 266 162 272 l 169 266 q 171 257 173 262 q 165 249 169 252 q 155 246 160 246 q 147 250 149 245 l 147 250 q 136 270 142 258 q 125 291 130 281 l 125 291 q 113 314 119 302 l 113 314 q 96 289 104 301 l 96 289 q 82 268 89 278 q 70 250 75 257 l 70 250 q 62 245 67 245 q 53 248 57 245 q 46 253 48 250 q 46 259 43 256 l 46 259 q 65 278 54 267 q 84 299 75 289 l 84 299 q 105 322 95 310 l 105 322 q 84 327 95 324 l 84 327 q 65 331 75 329 q 47 335 55 333 l 47 335 q 43 340 42 336 q 46 349 43 344 q 54 356 49 353 q 63 356 59 358 l 63 356 q 77 349 69 352 q 93 341 85 345 l 93 341 q 110 332 102 337 l 110 332 q 116 357 113 345 l 116 357 q 121 379 118 368 q 126 399 124 390 l 126 399 q 133 409 127 405 q 145 415 139 413 q 155 415 151 416 q 157 409 159 413 l 157 409 q 146 385 152 398 q 135 360 140 371 l 135 360 q 122 333 129 346 l 122 333 q 150 343 136 338 l 150 343 q 175 352 162 348 q 199 361 188 356 l 199 361 q 206 360 204 363 q 208 351 208 356 q 205 341 207 345 q 199 335 203 336 z"},"+":{"ha":301,"x_min":49,"x_max":277,"o":"m 269 155 l 269 155 q 270 145 277 153 q 251 135 263 137 l 251 135 l 168 135 q 153 91 160 112 q 139 50 146 70 l 139 50 q 124 34 135 37 q 112 39 112 31 l 112 39 q 128 88 120 64 q 143 135 135 112 l 143 135 q 99 134 120 134 q 56 133 77 134 l 56 133 q 54 144 49 135 q 84 156 59 153 l 84 156 l 150 156 q 166 201 158 179 q 182 243 174 222 l 182 243 q 188 251 183 247 q 197 256 192 254 q 206 256 202 257 q 210 251 210 255 l 210 251 q 193 202 201 225 q 176 156 184 179 l 176 156 q 223 156 199 156 q 269 155 247 156 z"},"=":{"ha":301,"x_min":37,"x_max":290,"o":"m 97 192 l 97 192 q 134 193 112 192 q 181 193 156 193 q 232 193 205 193 q 282 191 258 192 l 282 191 q 283 182 290 190 q 264 172 276 173 l 264 172 q 168 172 219 172 q 69 170 117 171 l 69 170 q 67 181 62 172 q 97 192 72 189 z m 72 119 l 72 119 q 109 120 87 119 q 156 120 131 120 q 207 120 180 120 q 257 118 233 119 l 257 118 q 258 109 265 117 q 239 98 251 100 l 239 98 q 143 99 194 99 q 44 96 92 98 l 44 96 q 43 107 37 98 q 72 119 48 116 z"},"|":{"ha":162,"x_min":80,"x_max":102,"o":"m 102 -243 l 102 -243 l 80 -243 l 80 645 l 102 645 l 102 -243 z"},"'":{"ha":120,"x_min":49,"x_max":173,"o":"m 123 396 l 123 396 q 134 403 126 401 q 159 405 141 405 l 159 405 q 169 395 173 405 l 169 395 q 146 369 160 385 q 117 334 132 352 q 86 299 101 316 q 60 270 71 281 l 60 270 q 52 271 55 268 q 51 278 49 273 l 51 278 q 66 302 56 286 q 87 336 76 318 q 107 370 97 353 q 123 396 117 386 z"},"\"":{"ha":214,"x_min":49,"x_max":267,"o":"m 123 396 l 123 396 q 134 403 126 401 q 159 405 141 405 l 159 405 q 169 395 173 405 l 169 395 q 146 369 160 385 q 117 334 132 352 q 86 299 101 316 q 60 270 71 281 l 60 270 q 52 271 55 268 q 51 278 49 273 l 51 278 q 66 302 56 286 q 87 336 76 318 q 107 370 97 353 q 123 396 117 386 z m 217 396 l 217 396 q 228 403 220 401 q 253 405 235 405 l 253 405 q 263 395 267 405 l 263 395 q 240 369 254 385 q 211 334 226 352 q 180 299 195 316 q 154 270 165 281 l 154 270 q 146 271 149 268 q 145 278 143 273 l 145 278 q 160 302 150 286 q 181 336 170 318 q 201 370 191 353 q 217 396 211 386 z"},">":{"ha":301,"x_min":25,"x_max":274,"o":"m 269 155 l 269 155 q 270 147 274 153 q 251 135 266 140 l 251 135 q 208 121 236 130 q 149 102 180 112 q 86 82 117 92 q 31 65 54 72 l 31 65 q 30 76 25 67 q 49 90 35 85 l 49 90 q 81 100 59 93 q 128 115 102 106 q 179 132 153 123 q 225 147 205 140 l 225 147 q 156 179 196 161 q 81 213 116 196 l 81 213 q 84 224 76 217 q 104 229 91 231 l 104 229 q 140 213 118 223 q 185 193 161 203 q 231 172 208 182 q 269 155 253 162 z"},"<":{"ha":301,"x_min":51,"x_max":300,"o":"m 56 133 l 56 133 q 55 142 51 135 q 74 153 59 148 l 74 153 q 117 167 89 158 q 177 186 145 176 q 240 206 208 196 q 294 223 271 216 l 294 223 q 295 212 300 221 q 276 198 290 203 l 276 198 q 244 188 265 195 q 198 173 223 181 q 146 157 172 165 q 100 141 120 148 l 100 141 q 169 110 129 127 q 244 75 209 92 l 244 75 q 242 64 249 71 q 221 59 234 57 l 221 59 q 186 75 207 65 q 141 96 164 85 q 95 116 117 106 q 56 133 72 126 z"},"~":{"ha":383,"x_min":50,"x_max":364,"o":"m 52 139 l 52 139 q 96 184 71 164 q 150 204 121 204 l 150 204 q 183 198 168 204 q 211 186 197 192 q 241 173 225 179 q 277 167 256 167 l 277 167 q 351 208 315 167 l 351 208 q 360 207 356 210 q 362 199 364 204 l 362 199 q 312 154 339 171 q 256 137 284 137 l 256 137 q 218 143 234 137 q 189 156 202 149 q 162 168 175 162 q 133 174 149 174 l 133 174 q 94 162 110 174 q 60 130 77 150 l 60 130 q 53 131 55 127 q 52 139 50 134 z"},"^":{"ha":272,"x_min":49,"x_max":252,"o":"m 181 361 l 181 361 q 197 359 190 373 l 197 359 q 224 280 210 319 q 251 205 237 240 l 251 205 q 250 194 252 200 q 244 184 248 188 q 234 177 239 179 q 226 178 229 175 l 226 178 q 201 251 214 212 q 177 321 188 289 l 177 321 q 148 285 163 304 q 117 246 133 265 q 87 209 101 226 q 60 177 72 191 l 60 177 q 53 179 56 175 q 51 188 49 182 l 51 188 q 109 263 74 219 q 181 361 143 307 z"},"\\":{"ha":212,"x_min":30,"x_max":177,"o":"m 49 630 l 49 630 q 76 478 59 565 q 110 299 92 390 q 146 122 128 207 q 176 -24 163 36 l 176 -24 q 169 -40 177 -35 q 156 -37 161 -45 l 156 -37 q 127 112 143 29 q 93 283 110 195 q 60 459 76 371 q 30 621 43 546 l 30 621 q 39 634 32 629 q 49 630 46 638 z"},"{":{"ha":291,"x_min":77,"x_max":387,"o":"m 209 496 l 209 496 q 263 593 223 563 q 379 622 302 622 l 379 622 q 386 614 387 620 q 375 608 385 608 l 375 608 q 289 584 318 608 q 248 506 260 560 l 248 506 q 241 469 243 485 q 238 436 239 452 q 234 404 236 420 q 227 366 232 387 l 227 366 q 199 311 219 336 q 147 272 178 286 l 147 272 q 182 243 172 265 q 186 192 192 220 l 186 192 q 172 146 180 166 q 156 105 164 125 q 141 65 148 85 q 128 21 133 45 l 128 21 q 136 -55 118 -30 q 205 -81 154 -81 l 205 -81 q 209 -88 210 -83 q 199 -96 208 -94 l 199 -96 q 102 -66 127 -96 q 88 16 77 -36 l 88 16 q 102 64 94 43 q 118 104 110 85 q 134 142 126 123 q 148 185 142 161 l 148 185 q 149 213 152 200 q 140 235 146 225 q 123 250 133 244 q 101 258 112 256 l 101 258 q 99 270 95 263 q 120 282 103 277 l 120 282 q 168 308 152 290 q 191 361 183 326 l 191 361 q 202 432 201 401 q 209 496 202 463 z"},"}":{"ha":285,"x_min":-1,"x_max":309,"o":"m 177 31 l 177 31 q 124 -66 163 -37 q 7 -96 84 -96 l 7 -96 q 0 -88 -1 -94 q 11 -81 1 -82 l 11 -81 q 97 -57 68 -81 q 138 21 126 -34 l 138 21 q 145 59 143 42 q 149 91 147 75 q 152 123 150 107 q 159 160 154 139 l 159 160 q 188 215 167 190 q 239 254 209 240 l 239 254 q 204 284 214 261 q 200 335 194 307 l 200 335 q 214 381 206 360 q 230 422 222 402 q 246 461 238 441 q 258 505 253 481 l 258 505 q 250 582 268 556 q 181 607 232 607 l 181 607 q 177 615 176 609 q 187 622 178 620 l 187 622 q 284 592 259 622 q 298 511 309 562 l 298 511 q 284 462 292 483 q 268 423 276 441 q 252 385 260 404 q 238 342 244 366 l 238 342 q 237 315 234 327 q 247 292 240 302 q 264 276 253 282 q 285 268 274 270 l 285 268 q 287 256 291 263 q 266 245 283 249 l 266 245 q 219 219 234 237 q 195 165 204 200 l 195 165 q 185 94 185 125 q 177 31 184 63 z"}}}
